<svg width="24" height="24" viewBox="0 0 24 24" fill="none" xmlns="http://www.w3.org/2000/svg">
<g clip-path="url(#clip0_1220_15048)">
<path d="M18.8645 19.6033C18.2353 19.5976 17.622 19.4058 17.1017 19.0522C16.5813 18.6985 16.1773 18.1988 15.9405 17.6159C15.7037 17.0331 15.6446 16.3932 15.7708 15.7768C15.8971 15.1605 16.2029 14.5953 16.6497 14.1524C17.0966 13.7095 17.6645 13.4088 18.282 13.2882C18.8994 13.1675 19.5388 13.2323 20.1195 13.4743C20.7002 13.7164 21.1963 14.1249 21.5453 14.6484C21.8942 15.1719 22.0804 15.7869 22.0805 16.4161C22.0805 16.8371 21.9971 17.2539 21.8351 17.6425C21.6732 18.031 21.4358 18.3837 21.1368 18.68C20.8378 18.9763 20.483 19.2105 20.093 19.369C19.703 19.5274 19.2854 19.6071 18.8645 19.6033ZM18.8645 14.6977C18.5246 14.6977 18.1924 14.7985 17.9098 14.9873C17.6272 15.1761 17.4069 15.4445 17.2769 15.7585C17.1468 16.0725 17.1128 16.418 17.1791 16.7513C17.2454 17.0847 17.409 17.3908 17.6494 17.6312C17.8897 17.8715 18.1959 18.0352 18.5292 18.1015C18.8626 18.1678 19.2081 18.1337 19.5221 18.0037C19.8361 17.8736 20.1044 17.6534 20.2933 17.3708C20.4821 17.0882 20.5829 16.7559 20.5829 16.4161C20.5829 15.9603 20.4018 15.5232 20.0795 15.201C19.7573 14.8787 19.3202 14.6977 18.8645 14.6977Z" fill="#CC0000"/>
<path d="M22.7804 23.52C22.6838 23.5201 22.5881 23.5009 22.499 23.4636C22.4098 23.4263 22.329 23.3717 22.2611 23.303C22.1932 23.2342 22.1397 23.1526 22.1036 23.063C22.0675 22.9734 22.0495 22.8775 22.0508 22.7808V21.8208C22.0483 21.2369 21.8145 20.6778 21.4007 20.2658C20.9869 19.8537 20.4267 19.6224 19.8428 19.6224H17.9228C17.3389 19.6224 16.7787 19.8537 16.3649 20.2658C15.9511 20.6778 15.7174 21.2369 15.7148 21.8208V22.7808C15.7267 22.8843 15.7165 22.9892 15.685 23.0885C15.6535 23.1878 15.6014 23.2793 15.532 23.357C15.4627 23.4347 15.3777 23.4969 15.2826 23.5395C15.1876 23.5821 15.0846 23.6041 14.9804 23.6041C14.8762 23.6041 14.7732 23.5821 14.6782 23.5395C14.5831 23.4969 14.4981 23.4347 14.4288 23.357C14.3594 23.2793 14.3073 23.1878 14.2758 23.0885C14.2443 22.9892 14.2342 22.8843 14.246 22.7808V21.8208C14.2485 20.8465 14.6367 19.9127 15.3257 19.2238C16.0147 18.5348 16.9484 18.1466 17.9228 18.144H19.8428C20.8172 18.1466 21.7509 18.5348 22.4399 19.2238C23.1289 19.9127 23.5171 20.8465 23.5196 21.8208V22.7808C23.5209 22.8783 23.5027 22.975 23.466 23.0652C23.4293 23.1555 23.3749 23.2375 23.306 23.3064C23.2371 23.3753 23.1551 23.4297 23.0648 23.4664C22.9745 23.5031 22.8778 23.5213 22.7804 23.52Z" fill="#CC0000"/>
<path d="M12.0005 23.52H3.17807C2.46262 23.52 1.77648 23.2358 1.27058 22.7299C0.764679 22.224 0.480469 21.5378 0.480469 20.8224V3.17758C0.480469 2.46213 0.764679 1.77599 1.27058 1.27009C1.77648 0.764191 2.46262 0.47998 3.17807 0.47998H20.8229C21.5383 0.47998 22.2245 0.764191 22.7304 1.27009C23.2363 1.77599 23.5205 2.46213 23.5205 3.17758V12C23.5323 12.1035 23.5222 12.2083 23.4907 12.3076C23.4592 12.4069 23.407 12.4984 23.3377 12.5761C23.2684 12.6539 23.1834 12.7161 23.0883 12.7587C22.9932 12.8013 22.8902 12.8233 22.7861 12.8233C22.6819 12.8233 22.5789 12.8013 22.4838 12.7587C22.3888 12.7161 22.3038 12.6539 22.2344 12.5761C22.1651 12.4984 22.113 12.4069 22.0815 12.3076C22.05 12.2083 22.0398 12.1035 22.0517 12V3.17758C22.0555 3.0138 22.0266 2.85091 21.9665 2.69849C21.9065 2.54606 21.8166 2.40718 21.7021 2.29001C21.5876 2.17284 21.4509 2.07974 21.2999 2.01619C21.1489 1.95265 20.9867 1.91994 20.8229 1.91998H3.17807C3.01184 1.91604 2.84654 1.94587 2.69218 2.00767C2.53782 2.06948 2.3976 2.16197 2.28003 2.27954C2.16246 2.39712 2.06997 2.53733 2.00816 2.69169C1.94636 2.84605 1.91653 3.01135 1.92047 3.17758V20.8224C1.91653 20.9886 1.94636 21.1539 2.00816 21.3083C2.06997 21.4626 2.16246 21.6028 2.28003 21.7204C2.3976 21.838 2.53782 21.9305 2.69218 21.9923C2.84654 22.0541 3.01184 22.0839 3.17807 22.08H12.0005C12.104 22.0681 12.2088 22.0783 12.3081 22.1098C12.4074 22.1413 12.4989 22.1934 12.5766 22.2628C12.6544 22.3321 12.7166 22.4171 12.7592 22.5122C12.8018 22.6072 12.8238 22.7102 12.8238 22.8144C12.8238 22.9186 12.8018 23.0215 12.7592 23.1166C12.7166 23.2117 12.6544 23.2967 12.5766 23.366C12.4989 23.4354 12.4074 23.4875 12.3081 23.519C12.2088 23.5505 12.104 23.5606 12.0005 23.5488V23.52Z" fill="#CC0000"/>
<path d="M15.9166 7.83364H15.7438L11.9998 6.87364L8.2558 7.83364C8.14535 7.85478 8.03165 7.85202 7.92235 7.82552C7.81306 7.79902 7.71071 7.74942 7.6222 7.68004C7.5354 7.60908 7.4654 7.51976 7.41726 7.4185C7.36912 7.31724 7.34404 7.20656 7.3438 7.09444V1.21924C7.34251 1.12181 7.36075 1.02511 7.39744 0.934845C7.43413 0.844578 7.48853 0.762575 7.55743 0.693675C7.62633 0.624776 7.70834 0.570375 7.7986 0.533684C7.88887 0.496992 7.98557 0.478754 8.083 0.480044H15.9166C16.014 0.478754 16.1107 0.496992 16.201 0.533684C16.2913 0.570375 16.3733 0.624776 16.4422 0.693675C16.5111 0.762575 16.5655 0.844578 16.6022 0.934845C16.6389 1.02511 16.6571 1.12181 16.6558 1.21924V7.09444C16.6556 7.20656 16.6305 7.31724 16.5823 7.4185C16.5342 7.51976 16.4642 7.60908 16.3774 7.68004C16.2432 7.77739 16.0823 7.83102 15.9166 7.83364ZM11.9998 5.38564C12.0603 5.37671 12.1217 5.37671 12.1822 5.38564L15.187 6.13444V1.92004H8.8126V6.15364L11.8174 5.40484C11.8769 5.3895 11.9384 5.38303 11.9998 5.38564ZM9.0622 19.6032H5.1358C5.03873 19.6032 4.94261 19.5841 4.85292 19.547C4.76324 19.5098 4.68175 19.4554 4.61311 19.3867C4.54447 19.3181 4.49002 19.2366 4.45287 19.1469C4.41572 19.0572 4.3966 18.9611 4.3966 18.864C4.3966 18.767 4.41572 18.6708 4.45287 18.5812C4.49002 18.4915 4.54447 18.41 4.61311 18.3414C4.68175 18.2727 4.76324 18.2183 4.85292 18.1811C4.94261 18.144 5.03873 18.1248 5.1358 18.1248H9.0622C9.25825 18.1248 9.44627 18.2027 9.5849 18.3414C9.72352 18.48 9.8014 18.668 9.8014 18.864C9.8014 19.0601 9.72352 19.2481 9.5849 19.3867C9.44627 19.5254 9.25825 19.6032 9.0622 19.6032ZM10.0414 16.656H5.1358C5.03231 16.6679 4.92748 16.6577 4.82818 16.6262C4.72889 16.5947 4.63738 16.5426 4.55964 16.4733C4.4819 16.4039 4.4197 16.3189 4.37711 16.2239C4.33452 16.1288 4.3125 16.0258 4.3125 15.9216C4.3125 15.8175 4.33452 15.7145 4.37711 15.6194C4.4197 15.5243 4.4819 15.4394 4.55964 15.37C4.63738 15.3007 4.72889 15.2485 4.82818 15.217C4.92748 15.1855 5.03231 15.1754 5.1358 15.1872H10.0414C10.2217 15.2079 10.3881 15.2942 10.5089 15.4296C10.6297 15.565 10.6965 15.7402 10.6965 15.9216C10.6965 16.1031 10.6297 16.2783 10.5089 16.4137C10.3881 16.5491 10.2217 16.6354 10.0414 16.656Z" fill="#CC0000"/>
</g>
<defs>
<clipPath id="clip0_1220_15048">
<rect width="24" height="24" fill="white"/>
</clipPath>
</defs>
</svg>
