<svg width="24" height="24" viewBox="0 0 24 24" fill="none" xmlns="http://www.w3.org/2000/svg">
<path d="M4.79438 7.05526C4.79438 5.80626 5.80738 4.79326 7.05538 4.79326H8.08438C8.68038 4.79326 9.25338 4.55726 9.67738 4.13626L10.3964 3.41626C11.2774 2.53126 12.7094 2.52726 13.5944 3.40826L13.6034 3.41626L14.3234 4.13626C14.7464 4.55726 15.3194 4.79326 15.9164 4.79326H16.9444C18.1934 4.79326 19.2064 5.80626 19.2064 7.05526V8.08226C19.2064 8.68026 19.4424 9.25226 19.8634 9.67626L20.5834 10.3963C21.4684 11.2773 21.4734 12.7083 20.5924 13.5943L20.5834 13.6033L19.8634 14.3233C19.4424 14.7453 19.2064 15.3193 19.2064 15.9153V16.9443C19.2064 18.1933 18.1934 19.2053 16.9444 19.2053H15.9164C15.3194 19.2053 14.7464 19.4423 14.3234 19.8633L13.6034 20.5823C12.7234 21.4683 11.2914 21.4723 10.4054 20.5913C10.4024 20.5883 10.3994 20.5853 10.3964 20.5823L9.67738 19.8633C9.25338 19.4423 8.68038 19.2053 8.08438 19.2053H7.05538C5.80738 19.2053 4.79438 18.1933 4.79438 16.9443V15.9153C4.79438 15.3193 4.55738 14.7453 4.13638 14.3233L3.41738 13.6033C2.53138 12.7223 2.52738 11.2903 3.40838 10.4053L3.41738 10.3963L4.13638 9.67626C4.55738 9.25226 4.79438 8.68026 4.79438 8.08226V7.05526" stroke="#CC0000" stroke-width="1.5" stroke-linecap="round" stroke-linejoin="round"/>
<path opacity="0.4" d="M9.43018 14.5697L14.5702 9.42969" stroke="#CC0000" stroke-width="1.5" stroke-linecap="round" stroke-linejoin="round"/>
<path opacity="0.4" d="M14.5669 15.322C14.3669 15.322 14.1769 15.242 14.0369 15.102C13.9669 15.032 13.9169 14.942 13.8769 14.852C13.8369 14.762 13.8169 14.673 13.8169 14.572C13.8169 14.472 13.8369 14.372 13.8769 14.282C13.9169 14.192 13.9669 14.112 14.0369 14.042C14.3169 13.762 14.8169 13.762 15.0969 14.042C15.1669 14.112 15.2269 14.192 15.2669 14.282C15.2969 14.372 15.3169 14.472 15.3169 14.572C15.3169 14.673 15.2969 14.762 15.2669 14.852C15.2269 14.942 15.1669 15.032 15.0969 15.102C14.9569 15.242 14.7669 15.322 14.5669 15.322Z" fill="#CC0000"/>
<path opacity="0.4" d="M9.42676 10.1822C9.32676 10.1822 9.23676 10.1612 9.14676 10.1212C9.05676 10.0812 8.96676 10.0322 8.89676 9.96216C8.82676 9.88216 8.77676 9.80216 8.73676 9.71216C8.69676 9.62116 8.67676 9.53216 8.67676 9.43216C8.67676 9.33116 8.69676 9.23216 8.73676 9.14216C8.77676 9.05216 8.82676 8.96216 8.89676 8.90216C9.18676 8.62116 9.67676 8.62116 9.95676 8.90216C10.0968 9.04116 10.1768 9.23216 10.1768 9.43216C10.1768 9.53216 10.1668 9.62116 10.1268 9.71216C10.0868 9.80216 10.0268 9.88216 9.95676 9.96216C9.88676 10.0322 9.80676 10.0812 9.71676 10.1212C9.62676 10.1612 9.52676 10.1822 9.42676 10.1822Z" fill="#CC0000"/>
</svg>
