<svg width="24" height="24" viewBox="0 0 24 24" fill="none" xmlns="http://www.w3.org/2000/svg">
<path fill-rule="evenodd" clip-rule="evenodd" d="M11.6787 1.4458C8.78071 1.4458 6.42871 3.79855 6.42871 6.6958C6.42871 9.5938 8.78071 11.9458 11.6787 11.9458C14.576 11.9458 16.9287 9.5938 16.9287 6.6958C16.9287 3.79855 14.576 1.4458 11.6787 1.4458ZM11.6787 2.9458C13.748 2.9458 15.4287 4.62655 15.4287 6.6958C15.4287 8.7658 13.748 10.4458 11.6787 10.4458C9.60871 10.4458 7.92871 8.7658 7.92871 6.6958C7.92871 4.62655 9.60871 2.9458 11.6787 2.9458ZM2.67871 20.9458H11.9997C12.1986 20.9458 12.3894 21.0248 12.53 21.1655C12.6707 21.3061 12.7497 21.4969 12.7497 21.6958C12.7497 21.8947 12.6707 22.0855 12.53 22.2261C12.3894 22.3668 12.1986 22.4458 11.9997 22.4458H1.92871C1.7298 22.4458 1.53903 22.3668 1.39838 22.2261C1.25773 22.0855 1.17871 21.8947 1.17871 21.6958V20.1958C1.17871 18.4056 1.88987 16.6887 3.15574 15.4228C4.42161 14.157 6.1385 13.4458 7.92871 13.4458H11.9997C12.1986 13.4458 12.3894 13.5248 12.53 13.6655C12.6707 13.8061 12.7497 13.9969 12.7497 14.1958C12.7497 14.3947 12.6707 14.5855 12.53 14.7261C12.3894 14.8668 12.1986 14.9458 11.9997 14.9458H7.92871C6.53632 14.9458 5.20097 15.4989 4.2164 16.4835C3.23183 17.4681 2.67871 18.8034 2.67871 20.1958V20.9458ZM15.7497 14.9998H21.9875C22.1864 14.9998 22.3771 14.9208 22.5178 14.7801C22.6584 14.6395 22.7375 14.4487 22.7375 14.2498C22.7375 14.0509 22.6584 13.8601 22.5178 13.7195C22.3771 13.5788 22.1864 13.4998 21.9875 13.4998H15.7497C15.5508 13.4998 15.36 13.5788 15.2194 13.7195C15.0787 13.8601 14.9997 14.0509 14.9997 14.2498C14.9997 14.4487 15.0787 14.6395 15.2194 14.7801C15.36 14.9208 15.5508 14.9998 15.7497 14.9998ZM15.7497 18.7438H21.9875C22.1806 18.7352 22.3629 18.6524 22.4965 18.5127C22.6301 18.373 22.7047 18.1871 22.7047 17.9938C22.7047 17.8005 22.6301 17.6146 22.4965 17.4749C22.3629 17.3352 22.1806 17.2524 21.9875 17.2438H15.7497C15.5508 17.2438 15.36 17.3228 15.2194 17.4635C15.0787 17.6041 14.9997 17.7949 14.9997 17.9938C14.9997 18.1927 15.0787 18.3835 15.2194 18.5241C15.36 18.6648 15.5508 18.7438 15.7497 18.7438ZM15.7497 22.4871H21.9875C22.1864 22.4871 22.3771 22.408 22.5178 22.2674C22.6584 22.1267 22.7375 21.936 22.7375 21.7371C22.7375 21.5381 22.6584 21.3474 22.5178 21.2067C22.3771 21.0661 22.1864 20.9871 21.9875 20.9871H15.7497C15.5508 20.9871 15.36 21.0661 15.2194 21.2067C15.0787 21.3474 14.9997 21.5381 14.9997 21.7371C14.9997 21.936 15.0787 22.1267 15.2194 22.2674C15.36 22.408 15.5508 22.4871 15.7497 22.4871Z" fill="#CC0000"/>
</svg>
