<svg width="23" height="24" viewBox="0 0 23 24" fill="none" xmlns="http://www.w3.org/2000/svg">
<path fill-rule="evenodd" clip-rule="evenodd" d="M2.85107 6.5C2.85107 3.87479 2.87779 3 6.17732 3C9.47684 3 9.50356 3.87479 9.50356 6.5C9.50356 9.12521 9.51408 10 6.17732 10C2.84055 10 2.85107 9.12521 2.85107 6.5Z" stroke="#CC0000" stroke-width="1.5" stroke-linecap="round" stroke-linejoin="round"/>
<path fill-rule="evenodd" clip-rule="evenodd" d="M13.3049 6.5C13.3049 3.87479 13.3316 3 16.6312 3C19.9307 3 19.9574 3.87479 19.9574 6.5C19.9574 9.12521 19.9679 10 16.6312 10C13.2944 10 13.3049 9.12521 13.3049 6.5Z" stroke="#CC0000" stroke-width="1.5" stroke-linecap="round" stroke-linejoin="round"/>
<path fill-rule="evenodd" clip-rule="evenodd" d="M2.85107 17.5C2.85107 14.8748 2.87779 14 6.17732 14C9.47684 14 9.50356 14.8748 9.50356 17.5C9.50356 20.1252 9.51408 21 6.17732 21C2.84055 21 2.85107 20.1252 2.85107 17.5Z" stroke="#CC0000" stroke-width="1.5" stroke-linecap="round" stroke-linejoin="round"/>
<path fill-rule="evenodd" clip-rule="evenodd" d="M13.3049 17.5C13.3049 14.8748 13.3316 14 16.6312 14C19.9307 14 19.9574 14.8748 19.9574 17.5C19.9574 20.1252 19.9679 21 16.6312 21C13.2944 21 13.3049 20.1252 13.3049 17.5Z" stroke="#CC0000" stroke-width="1.5" stroke-linecap="round" stroke-linejoin="round"/>
</svg>
