<svg width="629" height="745" viewBox="0 0 629 745" fill="none" xmlns="http://www.w3.org/2000/svg">
<rect width="629" height="745" fill="#570000"/>
<mask id="mask0_1626_15826" style="mask-type:alpha" maskUnits="userSpaceOnUse" x="0" y="0" width="629" height="745">
<rect width="629" height="745" fill="#0F172A"/>
</mask>
<g mask="url(#mask0_1626_15826)">
<path opacity="0.1" d="M98.099 4.21562C38.1523 93.3312 -76.5191 124.173 -157.822 74.1942C-239.125 24.2151 -257.348 -88.3207 -197.401 -177.436C-137.455 -266.552 -22.7834 -297.394 58.5196 -247.415C139.823 -197.436 158.046 -84.8999 98.099 4.21562Z" stroke="white" stroke-width="7"/>
<path d="M800.194 863.903C800.194 911.157 772.794 954.297 727.764 985.769C682.745 1017.23 620.365 1036.8 551.296 1036.8C482.227 1036.8 419.847 1017.23 374.828 985.769C329.798 954.297 302.397 911.157 302.397 863.903C302.397 816.649 329.798 773.509 374.828 742.037C419.847 710.573 482.227 691.001 551.296 691.001C620.365 691.001 682.745 710.573 727.764 742.037C772.794 773.509 800.194 816.649 800.194 863.903Z" stroke="white" stroke-width="7"/>
</g>
</svg>
