<svg width="24" height="24" viewBox="0 0 24 24" fill="none" xmlns="http://www.w3.org/2000/svg">
<path opacity="0.4" d="M2.8042 15.4775C2.8042 15.4775 2.9462 17.2155 2.9792 17.7635C3.0232 18.4985 3.3072 19.3195 3.7812 19.8895C4.4502 20.6975 5.2382 20.9825 6.2902 20.9845C7.5272 20.9865 16.5222 20.9865 17.7592 20.9845C18.8112 20.9825 19.5992 20.6975 20.2682 19.8895C20.7422 19.3195 21.0262 18.4985 21.0712 17.7635C21.1032 17.2155 21.2452 15.4775 21.2452 15.4775" stroke="black" stroke-opacity="0.7" stroke-width="1.5" stroke-linecap="round" stroke-linejoin="round"/>
<path d="M8.49609 5.32998V4.95898C8.49609 3.73898 9.48409 2.75098 10.7041 2.75098H13.2861C14.5051 2.75098 15.4941 3.73898 15.4941 4.95898L15.4951 5.32998" stroke="black" stroke-opacity="0.7" stroke-width="1.5" stroke-linecap="round" stroke-linejoin="round"/>
<path d="M11.9951 16.6788V15.3848" stroke="black" stroke-opacity="0.7" stroke-width="1.5" stroke-linecap="round" stroke-linejoin="round"/>
<path fill-rule="evenodd" clip-rule="evenodd" d="M2.75 8.39003V11.857C4.668 13.122 6.966 14.008 9.488 14.359C9.79 13.258 10.783 12.451 11.99 12.451C13.178 12.451 14.191 13.258 14.473 14.369C17.005 14.018 19.312 13.132 21.24 11.857V8.39003C21.24 6.69603 19.877 5.33203 18.183 5.33203H5.817C4.123 5.33203 2.75 6.69603 2.75 8.39003Z" stroke="black" stroke-opacity="0.7" stroke-width="1.5" stroke-linecap="round" stroke-linejoin="round"/>
</svg>
