<svg width="60" height="60" viewBox="0 0 60 60" fill="none" xmlns="http://www.w3.org/2000/svg">
<path d="M49 53H11C8.79 53 7 51.21 7 49V7H45V16L49 53Z" fill="#E6E6E6"/>
<path d="M49 54H11C8.24 54 6 51.76 6 49V7C6 6.45 6.45 6 7 6H45C45.55 6 46 6.45 46 7V15.95L49.99 52.9C50.02 53.18 49.93 53.46 49.74 53.68C49.55 53.9 49.28 54 49 54ZM8 8V49C8 50.65 9.35 52 11 52H47.89L44.01 16.11C44 16.07 44 16.04 44 16V8H8Z" fill="black"/>
<path d="M27 41V49H13V41L20 44L27 41Z" fill="#2CD8CC"/>
<path d="M27 49.9999H13C12.45 49.9999 12 49.5499 12 48.9999V40.9999C12 40.6599 12.17 40.3499 12.45 40.1699C12.5865 40.0768 12.7448 40.0205 12.9095 40.0065C13.0742 39.9925 13.2397 40.0212 13.39 40.0899L20 42.9099L26.61 40.0799C26.92 39.9499 27.27 39.9799 27.55 40.1599C27.83 40.3499 28 40.6599 28 40.9999V48.9999C28 49.5499 27.55 49.9999 27 49.9999ZM14 47.9999H26V42.5199L20.39 44.9199C20.14 45.0299 19.85 45.0299 19.6 44.9199L14 42.5199V47.9999Z" fill="black"/>
<path d="M27 39V41L20 44L13 41V39H27Z" fill="white"/>
<path d="M20 45C19.87 45 19.73 44.97 19.61 44.92L12.61 41.92C12.24 41.76 12 41.4 12 41V39C12 38.45 12.45 38 13 38H27C27.55 38 28 38.45 28 39V41C28 41.4 27.76 41.76 27.39 41.92L20.39 44.92C20.27 44.97 20.13 45 20 45ZM14 40.34L20 42.91L26 40.34V40H14V40.34Z" fill="black"/>
<path d="M18 35H22V39H18V35Z" fill="white"/>
<path d="M22 40H18C17.45 40 17 39.55 17 39V35C17 34.45 17.45 34 18 34H22C22.55 34 23 34.45 23 35V39C23 39.55 22.55 40 22 40ZM19 38H21V36H19V38Z" fill="black"/>
<path d="M49 53C46.79 53 45 51.21 45 49V15H53V49C53 51.21 51.21 53 49 53Z" fill="white"/>
<path d="M49 54C46.24 54 44 51.76 44 49V15C44 14.45 44.45 14 45 14H53C53.55 14 54 14.45 54 15V49C54 51.76 51.76 54 49 54ZM46 16V49C46 50.65 47.35 52 49 52C50.65 52 52 50.65 52 49V16H46Z" fill="black"/>
<path d="M12 12H20V20H12V12Z" fill="#FFD23F"/>
<path d="M20 21H12C11.45 21 11 20.55 11 20V12C11 11.45 11.45 11 12 11H20C20.55 11 21 11.45 21 12V20C21 20.55 20.55 21 20 21ZM13 19H19V13H13V19ZM40 15H24C23.45 15 23 14.55 23 14C23 13.45 23.45 13 24 13H40C40.55 13 41 13.45 41 14C41 14.55 40.55 15 40 15ZM40 19H24C23.45 19 23 18.55 23 18C23 17.45 23.45 17 24 17H40C40.55 17 41 17.45 41 18C41 18.55 40.55 19 40 19ZM40 24H24C23.45 24 23 23.55 23 23C23 22.45 23.45 22 24 22H40C40.55 22 41 22.45 41 23C41 23.55 40.55 24 40 24ZM40 28H14C13.45 28 13 27.55 13 27C13 26.45 13.45 26 14 26H40C40.55 26 41 26.45 41 27C41 27.55 40.55 28 40 28ZM40 32H14C13.45 32 13 31.55 13 31C13 30.45 13.45 30 14 30H40C40.55 30 41 30.45 41 31C41 31.55 40.55 32 40 32Z" fill="black"/>
</svg>
