<svg width="24" height="24" viewBox="0 0 24 24" fill="none" xmlns="http://www.w3.org/2000/svg">
<path fill-rule="evenodd" clip-rule="evenodd" d="M14.7365 2.7619H8.08449C6.02549 2.7619 4.25049 4.4309 4.25049 6.4909V17.2279C4.25049 19.4039 5.90849 21.1149 8.08449 21.1149H16.0725C18.1325 21.1149 19.8025 19.2879 19.8025 17.2279V8.0379L14.7365 2.7619Z" stroke="black" stroke-opacity="0.7" stroke-width="1.5" stroke-linecap="round" stroke-linejoin="round"/>
<path d="M14.4736 2.75021V5.65921C14.4736 7.07921 15.6226 8.23121 17.0426 8.23421C18.3586 8.23721 19.7056 8.23821 19.7966 8.23221" stroke="black" stroke-opacity="0.7" stroke-width="1.5" stroke-linecap="round" stroke-linejoin="round"/>
<path opacity="0.4" fill-rule="evenodd" clip-rule="evenodd" d="M12.1717 8.91094C12.0309 8.76959 11.8397 8.69014 11.6402 8.69016C11.4407 8.69017 11.2494 8.76966 11.1087 8.91104L8.27071 11.762C7.97848 12.0556 7.97957 12.5305 8.27313 12.8227C8.56669 13.1149 9.04156 13.1138 9.33379 12.8203L10.8907 11.2562V16.0136C10.8907 16.4279 11.2265 16.7636 11.6407 16.7636C12.0549 16.7636 12.3907 16.4279 12.3907 16.0136V11.2567L13.9478 12.8204C14.2401 13.1139 14.7149 13.1149 15.0085 12.8226C15.302 12.5303 15.303 12.0555 15.0107 11.7619L12.1717 8.91094Z" fill="black" fill-opacity="0.7"/>
</svg>
