<svg width="40" height="40" viewBox="0 0 40 40" fill="none" xmlns="http://www.w3.org/2000/svg">
<rect width="40" height="40" rx="5" fill="#009A9A" fill-opacity="0.1"/>
<path d="M10.4 14.75H29.6C30.5113 14.75 31.25 15.4887 31.25 16.4V29.6C31.25 30.5113 30.5113 31.25 29.6 31.25H10.4C9.48873 31.25 8.75 30.5113 8.75 29.6V16.4C8.75 15.4887 9.48873 14.75 10.4 14.75Z" stroke="#009A9A" stroke-width="1.5" stroke-linecap="round" stroke-linejoin="round"/>
<mask id="path-3-inside-1_122_6352" fill="white">
<path fill-rule="evenodd" clip-rule="evenodd" d="M26 8L20 14L14 8"/>
</mask>
<path d="M27.0607 9.06066C27.6464 8.47487 27.6464 7.52513 27.0607 6.93934C26.4749 6.35355 25.5251 6.35355 24.9393 6.93934L27.0607 9.06066ZM20 14L18.9393 15.0607C19.5251 15.6464 20.4749 15.6464 21.0607 15.0607L20 14ZM15.0607 6.93934C14.4749 6.35355 13.5251 6.35355 12.9393 6.93934C12.3536 7.52513 12.3536 8.47487 12.9393 9.06066L15.0607 6.93934ZM24.9393 6.93934L18.9393 12.9393L21.0607 15.0607L27.0607 9.06066L24.9393 6.93934ZM21.0607 12.9393L15.0607 6.93934L12.9393 9.06066L18.9393 15.0607L21.0607 12.9393Z" fill="#009A9A" mask="url(#path-3-inside-1_122_6352)"/>
</svg>
