<svg width="52" height="52" viewBox="0 0 52 52" fill="none" xmlns="http://www.w3.org/2000/svg">
<g filter="url(#filter0_d_461_9641)">
<circle cx="26" cy="22" r="20" fill="white"/>
<path d="M32.8577 15.1412C32.5106 14.7941 31.9539 14.7941 31.6068 15.1412L26.0004 20.7475L20.3941 15.1412C20.047 14.7941 19.4903 14.7941 19.1432 15.1412C18.796 15.4883 18.796 16.045 19.1432 16.3921L24.7495 21.9985L19.1432 27.6048C18.796 27.9519 18.796 28.5086 19.1432 28.8558C19.3134 29.0261 19.5427 29.1177 19.7654 29.1177C19.988 29.1177 20.2173 29.0326 20.3876 28.8558L25.9939 23.2494L31.6002 28.8558C31.7705 29.0261 31.9997 29.1177 32.2224 29.1177C32.4517 29.1177 32.6743 29.0326 32.8446 28.8558C33.1917 28.5086 33.1917 27.9519 32.8446 27.6048L27.2514 21.9985L32.8577 16.3921C33.2048 16.045 33.2048 15.4883 32.8577 15.1412Z" fill="black"/>
</g>
<defs>
<filter id="filter0_d_461_9641" x="0" y="0" width="52" height="52" filterUnits="userSpaceOnUse" color-interpolation-filters="sRGB">
<feFlood flood-opacity="0" result="BackgroundImageFix"/>
<feColorMatrix in="SourceAlpha" type="matrix" values="0 0 0 0 0 0 0 0 0 0 0 0 0 0 0 0 0 0 127 0" result="hardAlpha"/>
<feOffset dy="4"/>
<feGaussianBlur stdDeviation="3"/>
<feComposite in2="hardAlpha" operator="out"/>
<feColorMatrix type="matrix" values="0 0 0 0 0 0 0 0 0 0 0 0 0 0 0 0 0 0 0.15 0"/>
<feBlend mode="normal" in2="BackgroundImageFix" result="effect1_dropShadow_461_9641"/>
<feBlend mode="normal" in="SourceGraphic" in2="effect1_dropShadow_461_9641" result="shape"/>
</filter>
</defs>
</svg>
