<svg width="114" height="101" viewBox="0 0 114 101" fill="none" xmlns="http://www.w3.org/2000/svg">
<path d="M62.709 100.11C90.101 100.11 112.307 77.9047 112.307 50.5127C112.307 23.1206 90.101 0.915039 62.709 0.915039C35.3169 0.915039 13.1113 23.1206 13.1113 50.5127C13.1113 77.9047 35.3169 100.11 62.709 100.11Z" fill="#FFF036"/>
<path d="M110.624 37.6954C117.701 64.159 101.988 91.3477 75.524 98.4258C63.2141 101.718 50.7371 100.08 40.2109 94.7143C46.7797 95.7251 53.6572 95.4147 60.4895 93.5877C86.9531 86.5095 102.668 59.3208 95.5894 32.8581C91.8045 18.7035 82.2696 7.63439 70.172 1.46973C89.056 4.34999 105.374 18.0651 110.624 37.6963V37.6954Z" fill="#FBE000"/>
<path d="M51.1367 65.7076C50.1427 65.5122 49.3291 66.3647 49.5715 67.341C50.9015 72.7221 55.6114 86.7653 69.6705 87.4109C71.1323 87.4621 89.881 87.2481 89.3442 62.165C89.3176 60.9146 87.7347 60.1514 86.4277 60.7342C79.5617 63.7939 66.0492 68.6454 51.1367 65.7076Z" fill="white"/>
<path d="M89.2514 59.9678C91.0306 87.2299 71.1783 87.4633 69.6714 87.4085C58.4396 86.8947 53.2777 78.0479 50.9219 71.7249C54.101 77.2653 59.2505 82.5615 67.6852 82.8958C69.0559 82.9267 85.0128 82.5571 87.0282 61.0573C87.8904 60.6452 88.6465 60.2746 89.2514 59.9678Z" fill="#E3F8FF"/>
<path d="M93.1679 31.9089C93.2315 32.1088 93.2811 32.314 93.3377 32.5165C93.6189 33.5688 93.8134 34.6185 93.939 35.6435C93.977 35.9857 94.0168 36.3279 94.0398 36.6684C94.0982 37.4855 94.1123 38.2867 94.092 39.0756C94.0533 40.0945 93.9377 41.109 93.7462 42.1106L93.7409 42.1194C93.6228 42.7401 93.4678 43.3531 93.2766 43.9553C93.1493 44.3842 92.9937 44.798 92.8265 45.2004C91.6395 45.3451 90.4615 45.5562 89.298 45.8327C84.8764 46.878 80.789 48.8306 77.341 51.8373L77.3339 51.84C76.3866 51.463 75.4735 51.005 74.6049 50.471C74.3062 50.2883 74.0141 50.0948 73.7294 49.8909C73.3367 49.6169 72.9561 49.326 72.5886 49.0189C72.3764 48.8438 72.1633 48.6608 71.9563 48.4769L71.3302 47.9012C71.1268 47.6995 70.9226 47.4979 70.7227 47.2874C70.526 47.0833 70.3329 46.8757 70.1435 46.6649C69.9286 46.4279 69.7243 46.1785 69.5182 45.922C69.3434 45.7111 69.1738 45.4959 69.0098 45.2765C68.6472 44.7963 68.3023 44.3019 67.968 43.7881C67.4218 42.9396 66.9303 42.057 66.4965 41.1458C66.4134 40.9831 66.3373 40.8186 66.2621 40.6532C66.0915 40.2906 65.9358 39.9236 65.7846 39.5478C65.7315 39.4063 65.6723 39.2683 65.6272 39.1251C65.5564 38.9509 65.4892 38.7678 65.4238 38.5839C65.1794 37.8904 64.9628 37.1873 64.7747 36.4765C64.0115 33.545 63.8294 30.7301 64.138 28.1886C64.2636 27.1681 64.4661 26.1935 64.7402 25.2738C64.8057 25.0395 64.8799 24.8095 64.9639 24.584C65.1939 23.9164 65.4636 23.2752 65.7775 22.6739C66.1118 22.0195 66.4868 21.4146 66.898 20.8522C67.104 20.5718 67.3207 20.303 67.5453 20.0554C68.4053 19.0465 69.4433 18.2041 70.6077 17.5704C70.7669 17.4864 70.927 17.4024 71.0888 17.3255C71.3364 17.1964 71.5893 17.0894 71.8538 16.9947C71.8803 16.9779 71.9077 16.9682 71.936 16.9594C72.5179 16.7365 73.1228 16.5614 73.748 16.45C73.9912 16.4093 74.2344 16.3686 74.4802 16.335C74.7261 16.3014 74.9666 16.2775 75.2124 16.2678C75.4704 16.253 75.7289 16.25 75.9871 16.259C76.2436 16.2607 76.5036 16.2696 76.7653 16.2855C77.02 16.305 77.2791 16.3386 77.5382 16.3713C77.8628 16.4146 78.1926 16.4721 78.519 16.5464C78.7427 16.5906 78.9717 16.6498 79.191 16.7038C79.4988 16.7922 79.7995 16.8824 80.0984 16.9894C80.2699 17.0434 80.4477 17.1115 80.6245 17.1796C80.7483 17.2264 80.8722 17.2724 80.9977 17.3255C81.1047 17.3697 81.2047 17.4148 81.3143 17.4661C81.3329 17.4749 81.3568 17.4758 81.3753 17.4855C81.3771 17.4926 81.3771 17.4926 81.3842 17.49C81.5849 17.5819 81.7848 17.6748 81.9802 17.7756C82.1836 17.8746 82.3782 17.9763 82.5763 18.0851C83.7807 18.7441 84.9099 19.5323 85.9438 20.4357C86.225 20.6833 86.5009 20.9397 86.7795 21.2033C87.0297 21.4517 87.28 21.7011 87.5356 21.9647C87.6788 22.1238 87.8221 22.2813 87.9689 22.4457C88.1007 22.5925 88.2253 22.7411 88.35 22.8888C88.4358 22.9869 88.5216 23.0851 88.6003 23.1859C88.7533 23.3716 88.9063 23.5591 89.0442 23.7501C89.0858 23.8076 89.1371 23.8704 89.1884 23.9323C89.3246 24.1162 89.4608 24.3002 89.5925 24.4938C89.6597 24.5823 89.7172 24.6663 89.7774 24.7565C90.0064 25.0837 90.2204 25.4162 90.43 25.7584C90.8966 26.5106 91.3209 27.2883 91.7008 28.0878C91.8573 28.407 92.0094 28.7369 92.1465 29.0702C92.234 29.271 92.3216 29.4708 92.4029 29.6804L92.6983 30.4604C92.8672 30.9415 93.022 31.4279 93.167 31.9089H93.1679Z" fill="white"/>
<path d="M93.1684 31.9087C93.225 32.1112 93.2745 32.3155 93.3311 32.5189C93.6053 33.573 93.8069 34.62 93.9387 35.6432C93.9785 35.9854 94.0174 36.3277 94.0404 36.6681C94.0987 37.4852 94.1129 38.2864 94.0926 39.0753C94.0539 40.0942 93.9383 41.1088 93.7468 42.1103L93.7424 42.1191C93.6243 42.7398 93.4692 43.3528 93.2781 43.955C93.1499 44.3839 92.9951 44.7978 92.8271 45.2001C91.64 45.3449 90.462 45.556 89.2986 45.8324C90.5579 42.3225 90.5455 37.8178 89.2358 33.053C87.1691 25.4725 82.6812 18.7534 76.4688 16.8415C76.52 16.8326 76.5881 16.8264 76.6492 16.822C78.2003 16.738 79.7788 16.9608 81.3149 17.4658C81.3334 17.4746 81.3564 17.4755 81.3759 17.4852C81.3777 17.4923 81.3777 17.4923 81.3847 17.4906C81.5846 17.5825 81.7853 17.6745 81.9808 17.7753C82.1833 17.8744 82.3787 17.9761 82.5768 18.0848C83.7813 18.7438 84.9105 19.532 85.9443 20.4354C86.2256 20.683 86.5015 20.9394 86.78 21.203C87.0303 21.4523 87.2806 21.7008 87.5352 21.9644C87.6794 22.1236 87.8227 22.281 87.9686 22.4463C88.1012 22.5923 88.2259 22.7408 88.3506 22.8885C88.4364 22.9867 88.5222 23.0848 88.6009 23.1856C88.7539 23.3713 88.9068 23.5588 89.0448 23.7498C89.0864 23.8073 89.1377 23.8701 89.1889 23.932C89.3251 24.116 89.4613 24.2999 89.5931 24.4936C89.6603 24.582 89.7178 24.666 89.7779 24.7571C90.0061 25.0843 90.221 25.4159 90.4305 25.7582C90.8972 26.5103 91.3214 27.288 91.7013 28.0875C91.8579 28.4076 92.01 28.7366 92.147 29.07C92.2346 29.2707 92.3212 29.4706 92.4035 29.6802L92.6988 30.4601C92.8678 30.9412 93.0225 31.4276 93.1675 31.9087H93.1684Z" fill="#E3F8FF"/>
<path d="M64.1677 32.6109C64.3457 33.5652 64.4712 34.5285 64.5435 35.4965C64.5435 35.4965 64.5391 35.5053 64.5409 35.5133C64.5789 36.0696 64.6019 36.6302 64.6063 37.205C64.6081 37.8683 64.5886 38.5377 64.5382 39.2098C64.5249 39.4114 64.509 39.606 64.494 39.8005C64.4569 40.1994 64.4144 40.6009 64.3569 41.0068L64.2685 41.6046C64.175 42.2012 64.0605 42.7944 63.9254 43.383C62.7598 48.5289 60.2625 52.7383 57.1399 55.424C54.4701 54.3363 52.0152 53.8021 49.5745 53.7765C47.7156 53.7482 45.8718 54.0082 43.9519 54.545C43.1604 54.766 42.3583 55.0305 41.5394 55.3391C41.5191 55.3214 41.505 55.3037 41.4837 55.286C41.3918 55.1905 41.298 55.0941 41.199 55.0013C41.0805 54.8739 40.9602 54.7395 40.8488 54.6104C40.74 54.4884 40.6383 54.3646 40.5304 54.2416C40.5154 54.2231 40.5021 54.2036 40.4906 54.1921C39.987 53.5646 39.5269 52.9034 39.1137 52.213C38.9758 51.9742 38.8352 51.7284 38.7016 51.4799C38.5743 51.2526 38.4629 51.0218 38.3479 50.783C38.2351 50.5524 38.1289 50.3185 38.0295 50.0818C37.9818 49.9792 37.9411 49.8739 37.8925 49.7722C37.8191 49.5909 37.7457 49.4097 37.6802 49.2257C36.0902 45.019 35.6923 39.843 36.8667 34.6555C38.8263 26.0032 44.5462 20.0066 50.6533 19.4415C50.9195 19.4247 51.1928 19.4061 51.4581 19.4061C52.5651 19.3918 53.6671 19.557 54.7213 19.8952C54.8592 19.9367 54.9919 19.988 55.1281 20.0455C55.4234 20.1454 55.7099 20.2648 55.985 20.3957C56.1406 20.47 56.2901 20.5478 56.4386 20.6256C56.604 20.7052 56.7667 20.8016 56.9206 20.8927C57.1505 21.0306 57.3831 21.1748 57.6042 21.3313C57.7925 21.4587 57.9756 21.5957 58.1595 21.7328C58.2497 21.7982 58.3364 21.8725 58.4222 21.9468C58.5796 22.0759 58.7379 22.2059 58.8838 22.3474C59.4547 22.8671 59.9812 23.4336 60.4579 24.0409L60.4597 24.048C60.6259 24.2531 60.7851 24.4618 60.9337 24.6812C61.0531 24.8394 61.1689 25.0066 61.2777 25.1764C61.2821 25.1905 61.2936 25.2029 61.298 25.2171C61.3108 25.2298 61.321 25.2448 61.3281 25.2613C61.5934 25.6566 61.833 26.0669 62.0568 26.4993C62.3983 27.145 62.7052 27.8083 62.9765 28.4864C63.5104 29.818 63.9095 31.1997 64.1677 32.6109Z" fill="white"/>
<path d="M64.1674 32.6108C64.3455 33.5651 64.4709 34.5284 64.5433 35.4964C64.5433 35.4964 64.5388 35.5052 64.5406 35.5132C64.5786 36.0694 64.6016 36.6301 64.6061 37.2049C64.6078 37.8682 64.5884 38.5376 64.538 39.2097C64.5247 39.4113 64.5088 39.6059 64.4937 39.8004C64.4566 40.1992 64.4071 40.6025 64.3567 41.0066L64.2682 41.6044C64.1747 42.2011 64.0603 42.7942 63.9251 43.3828C62.7596 48.5287 60.2622 52.7382 57.1397 55.4239C54.4699 54.3361 52.015 53.802 49.5742 53.7764C59.1435 50.1533 65.9626 35.4628 60.4594 24.0479C60.7424 24.3255 61.0104 24.727 61.2774 25.1763C61.2819 25.1904 61.2934 25.2028 61.2978 25.2169C61.3105 25.2296 61.3207 25.2446 61.3278 25.2611C61.701 25.9209 62.0618 26.6389 62.3899 27.1554C62.6039 27.5825 62.7941 28.0326 62.9771 28.4863C63.5036 29.8204 63.9021 31.2014 64.1674 32.6108Z" fill="#E3F8FF"/>
<path d="M59.6687 38.3332C59.7138 42.463 57.2863 45.7103 54.2619 45.7085C51.2516 45.7059 48.6429 42.4852 48.4147 38.3951C48.1777 34.1645 50.5583 30.5989 53.7543 30.5609C56.9662 30.5228 59.6227 34.0628 59.6687 38.3332Z" fill="#70574F"/>
<path d="M59.6694 38.337C59.7145 42.4607 57.2879 45.7106 54.26 45.7088C52.6293 45.707 51.1215 44.7679 50.0576 43.2592C50.9473 43.9808 51.9748 44.4 53.0661 44.4C56.1047 44.3991 58.5242 41.1147 58.4588 36.9495C58.4278 34.9987 57.8574 33.1964 56.9351 31.8027C58.5631 33.2088 59.6402 35.6239 59.6694 38.3379V38.337Z" fill="#664C46"/>
<path d="M57.2103 33.6771C57.373 35.5227 56.0916 37.0252 54.3521 37.0526C52.6153 37.0791 51.0509 35.6244 50.8537 33.785C50.6538 31.9244 51.9246 30.375 53.6968 30.3423C55.4708 30.3096 57.0458 31.8112 57.2103 33.6771Z" fill="#8C7973"/>
<path d="M84.325 32.3068C85.9398 36.2093 84.9635 40.3993 82.2061 41.7753C79.4621 43.1434 75.8566 41.2721 74.0897 37.4907C72.2636 33.5811 73.0745 29.1099 75.9734 27.6181C78.8864 26.1182 82.6554 28.2716 84.325 32.3068Z" fill="#70574F"/>
<path d="M84.3267 32.3116C85.9388 36.2079 84.9652 40.3988 82.2043 41.7766C80.7178 42.5176 78.9854 42.3125 77.4404 41.3645C78.5264 41.6439 79.623 41.5749 80.6169 41.0779C83.3867 39.6922 84.34 35.4713 82.6942 31.5449C81.9231 29.7055 80.7169 28.2534 79.3453 27.3496C81.3651 27.9439 83.2664 29.7479 84.3267 32.3107V32.3116Z" fill="#664C46"/>
<path d="M80.5623 30.3196C81.1495 32.3907 80.1696 34.4344 78.3806 34.9048C76.5943 35.3744 74.6488 34.1054 74.0262 32.0493C73.3966 29.9712 74.3561 27.8762 76.1769 27.3916C78.0004 26.9061 79.9671 28.2264 80.5623 30.3205V30.3196Z" fill="#8C7973"/>
<path d="M40.8558 84.6207C39.0111 88.3694 35.8655 91.4371 32.1275 93.2836C28.0507 95.2963 23.171 95.345 18.7007 95.1212C16.3899 95.0054 14.3967 94.7047 12.3848 93.5188C9.47713 91.8041 7.89948 89.3492 5.7426 86.8916C4.85297 85.8773 3.75021 85.0434 3.01445 83.8982C1.85421 82.0906 1.19273 79.9921 0.892057 77.8653C0.19609 72.9635 2.80221 67.0225 6.49163 63.8434C8.0507 62.4992 10.0024 61.4044 11.7357 61.9925C12.284 62.1782 12.8747 61.9712 13.1887 61.484C14.6726 59.1838 17.5228 58.4357 20.1917 59.6711C20.2624 59.7029 20.3738 59.7657 20.5118 59.8506C21.3837 60.3848 22.4741 59.6861 22.3627 58.67C22.0125 55.467 22.5175 52.3241 24.8194 49.6773C27.7023 46.3628 33.224 45.4016 36.6464 48.1554C38.4672 49.6189 39.5134 51.8784 39.9352 54.1759C40.357 56.4734 40.212 58.8336 40.0166 61.1621C39.7513 64.328 39.394 67.4886 38.9474 70.6359C38.9129 70.8646 38.9453 71.0984 39.0409 71.309C39.1365 71.5197 39.2911 71.6981 39.486 71.8227C40.5843 72.5116 41.4465 73.7647 41.7826 74.9806C42.6819 78.2279 42.3432 81.5981 40.8558 84.6207Z" fill="#FFF036"/>
<path d="M111.384 37.4917C106.789 20.3145 95.4215 12.589 93.9226 10.9477C57.2308 -17.9371 4.39038 14.4585 13.2814 60.1076C12.4767 60.9389 12.4891 61.4146 11.9877 61.2466C5.27117 58.9668 -6.21008 76.236 4.15515 86.3872C9.89179 92.0054 9.5699 95.9999 21.9594 95.9999C28.3504 95.9999 31.7966 94.6787 34.9298 92.5377C73.4662 117.932 123.356 82.2521 111.384 37.4917ZM13.0639 62.6191C13.3752 62.4599 13.6493 62.2211 13.8492 61.9107C15.3233 59.6256 18.2089 59.3709 20.1005 60.5223C20.6293 60.846 21.2545 60.8938 21.8187 60.6921C22.2795 62.5758 23.086 63.8227 23.9526 64.6513L24.5929 76.1387C23.9685 78.094 24.0411 80.242 24.8051 82.245C23.789 86.1865 18.9774 87.5536 14.7193 84.0225C14.1711 82.5669 9.37269 76.6304 13.0639 62.6191ZM56.9815 54.5133C51.6596 52.452 47.0089 52.5368 41.74 54.4267C41.2502 53.904 40.8023 53.3437 40.4003 52.7509C39.9572 51.205 39.2595 49.8361 38.3477 48.7387C36.8108 44.5372 36.5526 39.6097 37.635 34.8299C40.7363 21.1316 51.6923 17.1504 57.9224 22.5554C63.0709 26.7666 63.3734 33.7431 63.7192 35.4047L63.6926 35.4596C64.3355 41.9452 62.0212 49.9104 56.9806 54.5133H56.9815ZM39.2312 61.0945C38.9786 64.0784 38.6454 67.055 38.2319 70.0209C34.1436 67.9357 28.6679 70.0758 26.0211 73.4583L25.5922 65.7735C27.9993 66.8842 30.976 66.3209 33.2797 64.8449C34.1578 64.2816 33.3044 62.9569 32.4298 63.5193C28.3318 66.1449 23.9137 64.8918 23.1267 59.1525C23.2752 58.2868 22.1406 53.9544 25.4118 50.1934C29.4355 45.5657 40.6152 44.6133 39.2312 61.0945ZM5.67796 85.6771C5.67442 85.6727 5.67 85.6718 5.66646 85.6682C-4.44142 75.5436 6.81698 61.3191 11.4164 62.7217C7.69777 77.4475 13.1815 84.4939 13.0542 84.1817C13.5494 85.0147 13.4353 85.5276 12.5678 86.3784C11.6923 87.237 8.74747 88.7837 5.67884 85.6771H5.67796ZM31.7772 92.5766C27.8817 94.5009 23.2098 94.5575 18.7386 94.3347C14.5292 94.1224 12.0973 93.2275 8.53435 88.9969C11.3819 89.4921 14.0172 87.8791 14.7388 85.9893C19.256 88.9429 23.8845 87.6889 25.7682 84.1322C27.5837 86.9479 30.6435 88.667 33.7298 88.9367C34.7556 89.0393 34.9139 87.4599 33.8668 87.3679C27.3706 86.8002 23.6219 79.6168 27.0098 74.7415C29.4302 71.2572 35.3914 69.2029 38.7846 72.2919C38.8359 72.3387 38.8978 72.3644 38.9579 72.3953C38.9968 72.4245 39.0251 72.4626 39.0667 72.4891C42.2361 74.4788 41.9762 80.5595 40.1482 84.2737C38.3999 87.8251 35.4268 90.7753 31.7772 92.5775V92.5766ZM36.3032 91.5154C45.1226 84.3347 44.2268 73.8686 39.9024 71.1546C39.4222 70.854 40.0112 70.6382 40.8009 61.2271C40.9309 59.6681 41.0388 58.0436 40.9662 56.4208C53.2142 51.4562 57.7446 58.3009 58.713 56.1025C58.7789 55.9513 58.7951 55.7831 58.7594 55.6221C58.7236 55.4612 58.6377 55.3157 58.514 55.2066C62.451 51.335 64.6336 45.808 65.234 40.2562C67.6447 45.9875 71.8205 50.1606 75.8893 52.0894C75.1107 52.8327 74.3763 53.6212 73.69 54.4505C73.6236 54.5301 73.5736 54.6221 73.5428 54.721C73.5121 54.82 73.5012 54.9241 73.5107 55.0273C73.5203 55.1305 73.5502 55.2308 73.5986 55.3224C73.6471 55.4141 73.7131 55.4952 73.793 55.5612C73.8729 55.6273 73.9651 55.6769 74.0642 55.7072C74.1633 55.7375 74.2674 55.748 74.3706 55.738C74.4737 55.7279 74.5739 55.6976 74.6653 55.6488C74.7567 55.6 74.8376 55.5335 74.9033 55.4534C81.9001 46.9948 90.9565 46.5827 93.1647 45.9521C96.2687 45.5878 97.2706 45.999 97.2414 44.9104C97.2308 44.4762 96.8532 44.1207 96.4349 44.1437C95.62 44.1678 94.806 44.2176 93.9942 44.2931C97.0044 34.5708 92.168 21.649 81.4296 16.6454L81.419 16.649C72.8428 13.293 64.898 17.6483 63.4432 27.559C57.0584 12.7783 40.0297 17.1239 36.0998 34.4815C35.1491 38.6776 35.1889 42.9843 36.1502 46.8824C32.5067 44.8034 27.2149 45.7213 24.2241 49.1605C20.1827 53.8067 22.0045 58.7829 21.3792 59.1782C21.0768 59.3727 20.8911 59.1278 20.5214 58.9553C18.5069 58.0232 16.3722 58.1063 14.6689 59.0473C6.82936 15.0943 57.6182 -15.3337 92.742 12.0239C93.3097 12.6403 105.25 20.6523 109.863 37.8985C121.344 80.8257 73.8209 115.6 36.3032 91.5154ZM81.3209 18.3416L81.3368 18.3363C90.4038 22.6014 95.7213 35.4091 92.2671 44.4797C86.7666 45.2349 81.4977 47.3096 77.1778 50.9397C73.6378 49.5071 69.5159 45.8151 66.9753 40.3198C60.7222 26.9603 68.1249 12.7535 81.3209 18.3416Z" fill="#553045"/>
<path d="M90.0173 59.6172L90.0005 59.389C89.9939 59.2591 89.9552 59.1327 89.8879 59.0214C89.8205 58.91 89.7266 58.8171 89.6145 58.751C89.5025 58.6848 89.3757 58.6475 89.2457 58.6423C89.1157 58.6372 88.9864 58.6643 88.8694 58.7214C72.4395 66.7396 59.3647 66.5238 51.2907 64.932C50.9375 64.8585 50.5713 64.8757 50.2265 64.9819C49.8816 65.0881 49.5693 65.28 49.3187 65.5395C49.0727 65.7992 48.8966 66.1171 48.8069 66.4634C48.7172 66.8097 48.7168 67.1731 48.8058 67.5196C49.1804 69.0378 49.641 70.5335 50.1853 71.9996C57.2582 90.979 74.691 91.6883 83.796 82.3179C88.5856 77.3887 90.6858 69.8515 90.0394 59.9373C90.0345 59.8308 90.0274 59.7243 90.0182 59.6181L90.0173 59.6172ZM82.6658 81.2214C74.5848 89.5367 59.8493 89.0211 52.8348 74.2298C55.4524 75.8995 60.2225 78.288 66.1307 78.288C72.0495 78.288 79.0967 75.8862 86.2262 67.9502C86.3573 67.7936 86.4225 67.5922 86.408 67.3885C86.3936 67.1847 86.3005 66.9946 86.1486 66.8581C85.9966 66.7216 85.7976 66.6495 85.5935 66.6569C85.3893 66.6643 85.1961 66.7507 85.0544 66.8979C68.1549 85.7111 52.3502 72.0588 51.6869 71.469C51.6789 71.4619 51.6692 71.4601 51.6621 71.4548C51.6533 71.4301 51.6462 71.4053 51.6356 71.3814C51.1232 69.9939 50.6886 68.5788 50.3339 67.1428C50.3075 67.0535 50.3049 66.9588 50.3265 66.8682C50.3481 66.7776 50.393 66.6942 50.4568 66.6264C50.5245 66.5579 50.6088 66.508 50.7015 66.4817C50.7941 66.4553 50.892 66.4534 50.9856 66.476C59.1232 68.082 72.1742 68.3358 88.5024 60.643C88.9968 69.8047 87.0344 76.7254 82.6658 81.2214ZM47.6287 38.4375C48.0744 46.4194 54.6848 46.729 54.2638 46.4955C60.295 46.4955 62.7844 36.3965 57.7755 31.5008C53.4273 27.2516 47.2255 31.2444 47.6287 38.4384V38.4375ZM54.2638 44.9205H54.2621C51.6736 44.9196 49.4036 41.9713 49.2002 38.3499C48.888 32.7583 53.3061 29.3324 56.6745 32.6274C60.7053 36.5662 58.804 44.9205 54.2638 44.9205ZM82.5562 42.4798C85.7309 40.8968 86.8266 36.2956 85.0518 32.0058C84.0083 29.4819 82.1087 27.5072 79.9731 26.7228C78.4511 26.1656 76.9434 26.2329 75.6116 26.9173C72.3528 28.5949 71.3491 33.487 73.376 37.8238C75.18 41.683 79.1728 44.1671 82.5562 42.4798ZM76.3323 28.3181C76.8348 28.0592 77.3923 27.9251 77.9577 27.9272C78.4352 27.9272 78.9304 28.0183 79.4301 28.2014C81.1607 28.8363 82.718 30.4829 83.597 32.6071C85.6398 37.5452 83.1054 42.6584 78.873 41.1842C73.7615 39.4005 72.0716 30.5104 76.3323 28.3172V28.3181ZM78.0656 9.90814C77.0291 9.80556 76.8753 11.3744 77.9126 11.4752C85.425 12.2074 88.0267 16.6706 88.9287 16.6706C89.622 16.6706 89.9801 15.8287 89.4893 15.3308C86.3677 12.1667 82.5244 10.3432 78.0656 9.90814ZM43.3698 13.4127C37.6278 16.5362 34.0737 21.3602 33.3326 23.0811C33.2556 23.2721 33.2563 23.4857 33.3348 23.6761C33.4133 23.8666 33.5632 24.0187 33.7524 24.1C33.9417 24.1812 34.1552 24.1852 34.3473 24.111C34.5395 24.0367 34.6949 23.8902 34.7803 23.7028C35.3533 22.3692 38.6315 17.7831 44.1223 14.7958C45.0367 14.2988 44.2868 12.9157 43.3707 13.4127H43.3698Z" fill="#553045"/>
</svg>
