<svg width="15" height="16" viewBox="0 0 15 16" fill="none" xmlns="http://www.w3.org/2000/svg">
<path d="M5.833 13C4.271 13 3 11.729 3 10.167V3.33398H1.833C0.822 3.33398 0 4.15598 0 5.16698V14.167C0 15.178 0.822 16 1.833 16H10.166C11.177 16 11.999 15.178 11.999 14.167V13H5.833Z" fill="#0F62FE" fill-opacity="0.8"/>
<path d="M5.833 0C4.82 0 4 0.821 4 1.833V10.166C4 11.179 4.821 11.999 5.833 11.999H12.833C13.846 11.999 14.666 11.178 14.666 10.166V2C14.666 0.895 13.771 0 12.666 0H5.833Z" fill="#0F62FE"/>
</svg>
