<svg width="24" height="24" viewBox="0 0 24 24" fill="none" xmlns="http://www.w3.org/2000/svg">
<path d="M19 5L14 0H3C2.46957 0 1.96086 0.210714 1.58579 0.585786C1.21071 0.960859 1 1.46957 1 2V22C1 22.5304 1.21071 23.0391 1.58579 23.4142C1.96086 23.7893 2.46957 24 3 24H17C17.5304 24 18.0391 23.7893 18.4142 23.4142C18.7893 23.0391 19 22.5304 19 22V5Z" fill="#2D98D4"/>
<path opacity="0.1" d="M17 23.75H3C2.46957 23.75 1.96086 23.5393 1.58579 23.1642C1.21071 22.7891 1 22.2804 1 21.75V22C1 22.5304 1.21071 23.0391 1.58579 23.4142C1.96086 23.7893 2.46957 24 3 24H17C17.5304 24 18.0391 23.7893 18.4142 23.4142C18.7893 23.0391 19 22.5304 19 22V21.75C19 22.2804 18.7893 22.7891 18.4142 23.1642C18.0391 23.5393 17.5304 23.75 17 23.75Z" fill="#010101"/>
<path d="M14 0V3C14 3.53043 14.2107 4.03914 14.5858 4.41421C14.9609 4.78929 15.4696 5 16 5H19L14 0Z" fill="#0377BE"/>
<path opacity="0.2" d="M14 0H3C2.46957 0 1.96086 0.210714 1.58579 0.585786C1.21071 0.960859 1 1.46957 1 2V2.25C1 1.71957 1.21071 1.21086 1.58579 0.835786C1.96086 0.460714 2.46957 0.25 3 0.25H14V0Z" fill="white"/>
<path opacity="0.1" d="M16 4.75C15.4696 4.75 14.9609 4.53929 14.5858 4.16421C14.2107 3.78914 14 3.28043 14 2.75V3C14 3.53043 14.2107 4.03914 14.5858 4.41421C14.9609 4.78929 15.4696 5 16 5H19L18.75 4.75H16Z" fill="#010101"/>
<path d="M15.9998 4.99995C15.4498 4.99995 14.9528 4.77795 14.5908 4.41895L18.9998 8.82694V4.99995H15.9998Z" fill="url(#paint0_linear_158_7540)"/>
<path d="M7 11H22C22.2652 11 22.5196 11.1054 22.7071 11.2929C22.8946 11.4804 23 11.7348 23 12V19C23 19.2652 22.8946 19.5196 22.7071 19.7071C22.5196 19.8946 22.2652 20 22 20H7C6.73478 20 6.48043 19.8946 6.29289 19.7071C6.10536 19.5196 6 19.2652 6 19V12C6 11.7348 6.10536 11.4804 6.29289 11.2929C6.48043 11.1054 6.73478 11 7 11Z" fill="#0A70B9"/>
<path opacity="0.2" d="M22 11H7C6.73478 11 6.48043 11.1054 6.29289 11.2929C6.10536 11.4804 6 11.7348 6 12V12.25C6 11.9848 6.10536 11.7304 6.29289 11.5429C6.48043 11.3554 6.73478 11.25 7 11.25H22C22.2652 11.25 22.5196 11.3554 22.7071 11.5429C22.8946 11.7304 23 11.9848 23 12.25V12C23 11.7348 22.8946 11.4804 22.7071 11.2929C22.5196 11.1054 22.2652 11 22 11Z" fill="white"/>
<path opacity="0.1" d="M22 19.75H7C6.73478 19.75 6.48043 19.6446 6.29289 19.4571C6.10536 19.2696 6 19.0152 6 18.75V19C6 19.2652 6.10536 19.5196 6.29289 19.7071C6.48043 19.8946 6.73478 20 7 20H22C22.2652 20 22.5196 19.8946 22.7071 19.7071C22.8946 19.5196 23 19.2652 23 19V18.75C23 19.0152 22.8946 19.2696 22.7071 19.4571C22.5196 19.6446 22.2652 19.75 22 19.75Z" fill="#010101"/>
<path d="M6.99976 19.9999C6.73843 19.9996 6.48771 19.8965 6.30176 19.7129L10.5888 23.9999H16.9998C17.5302 23.9999 18.0389 23.7892 18.414 23.4141C18.789 23.039 18.9998 22.5303 18.9998 21.9999V19.9999H6.99976Z" fill="url(#paint1_linear_158_7540)"/>
<path opacity="0.2" d="M14 0H3C2.46957 0 1.96086 0.210714 1.58579 0.585786C1.21071 0.960859 1 1.46957 1 2V2.25C1 1.71957 1.21071 1.21086 1.58579 0.835786C1.96086 0.460714 2.46957 0.25 3 0.25H14V0Z" fill="white"/>
<path d="M14.5 18H13V17H14.5C14.6326 17 14.7598 16.9473 14.8536 16.8536C14.9473 16.7598 15 16.6326 15 16.5C15 16.3674 14.9473 16.2402 14.8536 16.1464C14.7598 16.0527 14.6326 16 14.5 16C13.673 16 13 15.327 13 14.5C13 13.673 13.673 13 14.5 13H16V14H14.5C14.3674 14 14.2402 14.0527 14.1464 14.1464C14.0527 14.2402 14 14.3674 14 14.5C14 14.6326 14.0527 14.7598 14.1464 14.8536C14.2402 14.9473 14.3674 15 14.5 15C15.327 15 16 15.673 16 16.5C16 17.327 15.327 18 14.5 18ZM10.5 18C9.673 18 9 17.327 9 16.5V14.5C9 13.673 9.673 13 10.5 13C11.327 13 12 13.673 12 14.5H11C11 14.3674 10.9473 14.2402 10.8536 14.1464C10.7598 14.0527 10.6326 14 10.5 14C10.3674 14 10.2402 14.0527 10.1464 14.1464C10.0527 14.2402 10 14.3674 10 14.5V16.5C10 16.6326 10.0527 16.7598 10.1464 16.8536C10.2402 16.9473 10.3674 17 10.5 17C10.6326 17 10.7598 16.9473 10.8536 16.8536C10.9473 16.7598 11 16.6326 11 16.5H12C12 17.327 11.327 18 10.5 18ZM19 15.849L18.5 17L18 15.849V13H17V16L18 18H19L20 16V13H19V15.849Z" fill="white"/>
<path d="M22 11H19V5L14 0H3C2.46957 0 1.96086 0.210714 1.58579 0.585786C1.21071 0.960859 1 1.46957 1 2V22C1 22.5304 1.21071 23.0391 1.58579 23.4142C1.96086 23.7893 2.46957 24 3 24H17C17.5304 24 18.0391 23.7893 18.4142 23.4142C18.7893 23.0391 19 22.5304 19 22V20H22C22.2652 20 22.5196 19.8946 22.7071 19.7071C22.8946 19.5196 23 19.2652 23 19V12C23 11.7348 22.8946 11.4804 22.7071 11.2929C22.5196 11.1054 22.2652 11 22 11Z" fill="url(#paint2_linear_158_7540)"/>
<defs>
<linearGradient id="paint0_linear_158_7540" x1="15.7808" y1="3.69495" x2="19.2708" y2="7.18495" gradientUnits="userSpaceOnUse">
<stop stop-color="#010101" stop-opacity="0.1"/>
<stop offset="1" stop-color="#010101" stop-opacity="0"/>
</linearGradient>
<linearGradient id="paint1_linear_158_7540" x1="9.82176" y1="17.0279" x2="16.0818" y2="23.2869" gradientUnits="userSpaceOnUse">
<stop stop-color="#010101" stop-opacity="0.1"/>
<stop offset="1" stop-color="#010101" stop-opacity="0"/>
</linearGradient>
<linearGradient id="paint2_linear_158_7540" x1="-1.701" y1="7.347" x2="23.137" y2="18.929" gradientUnits="userSpaceOnUse">
<stop stop-color="white" stop-opacity="0.2"/>
<stop offset="1" stop-color="white" stop-opacity="0"/>
</linearGradient>
</defs>
</svg>
