<svg width="23" height="24" viewBox="0 0 23 24" fill="none" xmlns="http://www.w3.org/2000/svg">
<path fill-rule="evenodd" clip-rule="evenodd" d="M2.85107 6.5C2.85107 3.87479 2.87779 3 6.17732 3C9.47684 3 9.50356 3.87479 9.50356 6.5C9.50356 9.12521 9.51408 10 6.17732 10C2.84055 10 2.85107 9.12521 2.85107 6.5Z" stroke="black" stroke-opacity="0.7" stroke-width="1.5" stroke-linecap="round" stroke-linejoin="round"/>
<path fill-rule="evenodd" clip-rule="evenodd" d="M13.3052 6.5C13.3052 3.87479 13.3319 3 16.6314 3C19.9309 3 19.9577 3.87479 19.9577 6.5C19.9577 9.12521 19.9682 10 16.6314 10C13.2947 10 13.3052 9.12521 13.3052 6.5Z" stroke="black" stroke-opacity="0.7" stroke-width="1.5" stroke-linecap="round" stroke-linejoin="round"/>
<path fill-rule="evenodd" clip-rule="evenodd" d="M2.85107 17.5C2.85107 14.8748 2.87779 14 6.17732 14C9.47684 14 9.50356 14.8748 9.50356 17.5C9.50356 20.1252 9.51408 21 6.17732 21C2.84055 21 2.85107 20.1252 2.85107 17.5Z" stroke="black" stroke-opacity="0.7" stroke-width="1.5" stroke-linecap="round" stroke-linejoin="round"/>
<path fill-rule="evenodd" clip-rule="evenodd" d="M13.3052 17.5C13.3052 14.8748 13.3319 14 16.6314 14C19.9309 14 19.9577 14.8748 19.9577 17.5C19.9577 20.1252 19.9682 21 16.6314 21C13.2947 21 13.3052 20.1252 13.3052 17.5Z" stroke="black" stroke-opacity="0.7" stroke-width="1.5" stroke-linecap="round" stroke-linejoin="round"/>
</svg>
