<svg width="32" height="32" viewBox="0 0 32 32" fill="none" xmlns="http://www.w3.org/2000/svg">
<path d="M24.2 12.1933L23.8 24.3003C23.766 25.3372 23.3292 26.32 22.5823 27.0401C21.8355 27.7602 20.8375 28.161 19.8 28.1573H12.2C11.1632 28.161 10.1658 27.7608 9.41907 27.0415C8.67236 26.3223 8.23512 25.3405 8.20003 24.3043L7.80003 12.1933C7.79128 11.9281 7.88824 11.6702 8.06959 11.4765C8.25093 11.2828 8.50181 11.169 8.76703 11.1603C9.03224 11.1515 9.29007 11.2485 9.4838 11.4298C9.67752 11.6112 9.79128 11.8621 9.80003 12.1273L10.2 24.2373C10.2199 24.7542 10.4394 25.2434 10.8124 25.602C11.1853 25.9605 11.6827 26.1607 12.2 26.1603H19.8C20.3181 26.1606 20.816 25.96 21.189 25.6005C21.5621 25.2411 21.7811 24.751 21.8 24.2333L22.2 12.1273C22.2088 11.8621 22.3225 11.6112 22.5163 11.4298C22.71 11.2485 22.9678 11.1515 23.233 11.1603C23.4982 11.169 23.7491 11.2828 23.9305 11.4765C24.1118 11.6702 24.2088 11.9281 24.2 12.1933ZM25.523 8.16428C25.523 8.42949 25.4177 8.68385 25.2301 8.87138C25.0426 9.05892 24.7882 9.16428 24.523 9.16428H7.47803C7.21281 9.16428 6.95846 9.05892 6.77092 8.87138C6.58338 8.68385 6.47803 8.42949 6.47803 8.16428C6.47803 7.89906 6.58338 7.64471 6.77092 7.45717C6.95846 7.26963 7.21281 7.16428 7.47803 7.16428H10.578C10.8949 7.16513 11.2007 7.04807 11.436 6.83587C11.6713 6.62368 11.8192 6.33153 11.851 6.01628C11.9248 5.27676 12.2713 4.59121 12.8229 4.09318C13.3746 3.59516 14.0918 3.32034 14.835 3.32228H17.165C17.9082 3.32034 18.6255 3.59516 19.1771 4.09318C19.7288 4.59121 20.0752 5.27676 20.149 6.01628C20.1808 6.33153 20.3287 6.62368 20.564 6.83587C20.7993 7.04807 21.1052 7.16513 21.422 7.16428H24.522C24.7872 7.16428 25.0416 7.26963 25.2291 7.45717C25.4167 7.64471 25.522 7.89906 25.522 8.16428H25.523ZM13.587 7.16428H18.415C18.2836 6.86402 18.1977 6.54586 18.16 6.22028C18.1353 5.97378 18.0199 5.74526 17.8362 5.57899C17.6526 5.41271 17.4138 5.32052 17.166 5.32028H14.836C14.5883 5.32052 14.3495 5.41271 14.1658 5.57899C13.9822 5.74526 13.8668 5.97378 13.842 6.22028C13.8041 6.54591 13.7178 6.86407 13.586 7.16428H13.587ZM14.594 22.3153V13.8003C14.594 13.5351 14.4887 13.2807 14.3011 13.0932C14.1136 12.9056 13.8592 12.8003 13.594 12.8003C13.3288 12.8003 13.0745 12.9056 12.8869 13.0932C12.6994 13.2807 12.594 13.5351 12.594 13.8003V22.3193C12.594 22.5845 12.6994 22.8388 12.8869 23.0264C13.0745 23.2139 13.3288 23.3193 13.594 23.3193C13.8592 23.3193 14.1136 23.2139 14.3011 23.0264C14.4887 22.8388 14.594 22.5845 14.594 22.3193V22.3153ZM19.408 22.3153V13.8003C19.408 13.5351 19.3027 13.2807 19.1151 13.0932C18.9276 12.9056 18.6732 12.8003 18.408 12.8003C18.1428 12.8003 17.8885 12.9056 17.7009 13.0932C17.5134 13.2807 17.408 13.5351 17.408 13.8003V22.3193C17.408 22.5845 17.5134 22.8388 17.7009 23.0264C17.8885 23.2139 18.1428 23.3193 18.408 23.3193C18.6732 23.3193 18.9276 23.2139 19.1151 23.0264C19.3027 22.8388 19.408 22.5845 19.408 22.3193V22.3153Z" fill="#CC0000"/>
</svg>
