<svg width="35" height="35" viewBox="0 0 35 35" fill="none" xmlns="http://www.w3.org/2000/svg">
<rect width="35" height="35" rx="5" fill="#FF7E07" fill-opacity="0.1"/>
<path d="M17.5 9.52488C17.4139 9.52488 17.3438 9.45473 17.3438 9.36863V7.65625C17.3438 7.57014 17.4139 7.5 17.5 7.5C17.5861 7.5 17.6562 7.57014 17.6562 7.65625V9.36863C17.6562 9.45473 17.5861 9.52488 17.5 9.52488Z" stroke="#FF7E07"/>
<path d="M23.1408 11.8621L23.1408 11.8621L23.1396 11.8609C23.0785 11.7998 23.0785 11.7008 23.1396 11.6396L24.3506 10.4286C24.4117 10.3675 24.5107 10.3675 24.5719 10.4286C24.633 10.4898 24.633 10.5888 24.5719 10.6499L23.3617 11.8601C23.3292 11.8921 23.2891 11.907 23.2498 11.907C23.2085 11.907 23.1702 11.8917 23.1408 11.8621Z" stroke="#FF7E07"/>
<path d="M27.3432 17.6562H25.6309C25.5448 17.6562 25.4746 17.5861 25.4746 17.5C25.4746 17.4139 25.5448 17.3438 25.6309 17.3438H27.3432C27.4293 17.3438 27.4995 17.4139 27.4995 17.5C27.4995 17.5861 27.4293 17.6562 27.3432 17.6562Z" stroke="#FF7E07"/>
<path d="M24.3518 24.5721L24.3518 24.5721L24.3506 24.5709L23.1396 23.3599L22.786 23.7134L23.1396 23.3599C23.0785 23.2988 23.0785 23.1997 23.1396 23.1386C23.2007 23.0775 23.2997 23.0775 23.3609 23.1386L23.7144 22.7851L23.3609 23.1386L24.5719 24.3496C24.633 24.4107 24.633 24.5098 24.5719 24.5709C24.5409 24.6019 24.5018 24.6169 24.4608 24.6169C24.4195 24.6169 24.3812 24.6017 24.3518 24.5721Z" stroke="#FF7E07"/>
<path d="M10.4308 24.5721L10.4308 24.5721L10.4296 24.5709C10.3685 24.5098 10.3685 24.4107 10.4296 24.3496L11.6406 23.1386C11.7017 23.0775 11.8008 23.0775 11.8619 23.1386C11.923 23.1997 11.923 23.2988 11.8619 23.3599L10.6509 24.5709C10.6199 24.6019 10.5808 24.6169 10.5398 24.6169C10.4985 24.6169 10.4602 24.6017 10.4308 24.5721Z" stroke="#FF7E07"/>
<path d="M9.36863 17.6562H7.65625C7.57014 17.6562 7.5 17.5861 7.5 17.5C7.5 17.4139 7.57014 17.3438 7.65625 17.3438H9.36863C9.45473 17.3438 9.52488 17.4139 9.52488 17.5C9.52488 17.5861 9.45473 17.6562 9.36863 17.6562Z" stroke="#FF7E07"/>
<path d="M11.6418 11.8621L11.6418 11.8621L11.6406 11.8609L10.4296 10.6499C10.3685 10.5888 10.3685 10.4898 10.4296 10.4286C10.4907 10.3675 10.5898 10.3675 10.6509 10.4286L11.8619 11.6396C11.9226 11.7004 11.923 11.7985 11.863 11.8597C11.8287 11.893 11.7888 11.907 11.7508 11.907C11.7095 11.907 11.6712 11.8917 11.6418 11.8621Z" stroke="#FF7E07"/>
<path d="M16.2893 12.0048L16.2893 12.0048C14.1667 12.4454 12.4371 14.1819 11.996 16.3065C11.545 18.4982 12.365 20.6651 14.1168 21.9918C14.6318 22.3764 15.0072 22.9313 15.2038 23.5628H19.7854C19.9977 22.9302 20.4149 22.3622 20.9795 21.92C22.3395 20.8411 23.1251 19.2351 23.1251 17.5003C23.1251 15.7958 22.3705 14.206 21.044 13.1286L16.2893 12.0048ZM16.2893 12.0048L16.2919 12.0043M16.2893 12.0048L16.2919 12.0043M16.2919 12.0043C17.9919 11.6417 19.7274 12.061 21.0439 13.1286L16.2919 12.0043Z" stroke="#FF7E07"/>
<path d="M15.3743 24.5625H19.6257V26.4688C19.6257 27.0326 19.1583 27.5 18.5945 27.5H16.407C16.164 27.5 15.9117 27.4072 15.7206 27.2146C15.5349 27.0275 15.3757 26.714 15.3757 26.215V24.6663C15.3757 24.6319 15.3753 24.5973 15.3743 24.5625Z" stroke="#FF7E07"/>
<path d="M20.7812 17.4375C20.6951 17.4375 20.625 17.3674 20.625 17.2812C20.625 15.6777 19.3223 14.375 17.7188 14.375C17.6326 14.375 17.5625 14.3049 17.5625 14.2188C17.5625 14.1326 17.6326 14.0625 17.7188 14.0625C19.4927 14.0625 20.9375 15.5073 20.9375 17.2812C20.9375 17.3674 20.8674 17.4375 20.7812 17.4375Z" fill="#F7F7F7" stroke="#FF7E07"/>
</svg>
