<svg width="97" height="97" viewBox="0 0 97 97" fill="none" xmlns="http://www.w3.org/2000/svg">
<path d="M48.4995 96.0102C74.7386 96.0102 96.0097 74.7391 96.0097 48.5C96.0097 22.2608 74.7386 0.989746 48.4995 0.989746C22.2603 0.989746 0.989258 22.2608 0.989258 48.5C0.989258 74.7391 22.2603 96.0102 48.4995 96.0102Z" fill="#FFF035"/>
<path d="M48.5 97C21.7571 97 0 75.2429 0 48.5C0 21.7571 21.7571 0 48.5 0C75.2429 0 97 21.7571 97 48.5C97 75.2429 75.2429 97 48.5 97ZM48.5 1.97959C22.8484 1.97959 1.97959 22.8484 1.97959 48.5C1.97959 74.1516 22.8484 95.0204 48.5 95.0204C74.1516 95.0204 95.0204 74.1516 95.0204 48.5C95.0204 22.8484 74.1516 1.97959 48.5 1.97959Z" fill="black"/>
<path d="M70.0598 74.9655C69.7437 74.9655 69.4344 74.8147 69.2421 74.5353C69.1715 74.4319 62.0593 64.2382 50.9869 63.3315C43.5431 62.7245 35.9399 66.3879 28.4168 74.2299C28.0379 74.6233 27.4126 74.6368 27.0172 74.2589C26.6228 73.88 26.6103 73.2536 26.9882 72.8592C34.9491 64.56 43.0908 60.6946 51.1657 61.3596C63.1834 62.3543 70.5673 72.9656 70.8756 73.417C71.184 73.8684 71.0689 74.4831 70.6175 74.7924C70.4474 74.9094 70.2522 74.9655 70.0598 74.9655Z" fill="black"/>
<path d="M28.2035 23.5149C27.6477 23.5149 27.0958 23.2839 26.7053 22.8325C25.9938 22.009 26.076 20.7688 26.8947 20.0526C27.089 19.8834 31.6881 15.9407 38.0406 17.3847C39.1067 17.6274 39.7746 18.6877 39.532 19.7539C39.2904 20.8191 38.2368 21.4918 37.1629 21.2453C32.8142 20.2546 29.6273 22.9263 29.4929 23.0393C29.1198 23.3583 28.6597 23.5149 28.2035 23.5149Z" fill="#705A4F"/>
<path d="M28.2039 24.5051C27.3398 24.5051 26.5201 24.132 25.9576 23.4805C24.8933 22.2481 25.0219 20.3768 26.2437 19.3077C26.4544 19.126 31.4372 14.8758 38.2604 16.4195C39.8572 16.7829 40.8606 18.3778 40.4971 19.9737C40.3212 20.7499 39.8543 21.41 39.1816 21.8324C38.5117 22.2548 37.7172 22.3892 36.942 22.2104C33.1123 21.3317 30.2493 23.696 30.1304 23.7966C29.5987 24.2518 28.9125 24.5051 28.2039 24.5051ZM35.233 18.0579C30.7548 18.0579 27.6955 20.6687 27.5447 20.7992C27.1416 21.1529 27.1001 21.7754 27.4548 22.1862C27.7931 22.5777 28.4504 22.628 28.8506 22.2877C29.2324 21.9658 32.6861 19.211 37.3827 20.2811C37.6457 20.3391 37.9066 20.2965 38.129 20.1564C38.3522 20.0162 38.5079 19.7958 38.5668 19.5348C38.6886 19.0022 38.3542 18.4716 37.8216 18.3498C36.9178 18.1449 36.0508 18.0579 35.233 18.0579Z" fill="black"/>
<path d="M58.9318 21.5087C58.5197 21.1358 58.2655 20.5941 58.2788 19.9974C58.3039 18.9094 59.1969 18.045 60.2846 18.0633C60.5421 18.0682 66.5977 18.2306 70.339 23.5638C70.9667 24.4591 70.7505 25.6935 69.8552 26.3212C68.9613 26.9489 67.7287 26.7407 67.0978 25.8374C64.5381 22.1849 60.3825 22.0275 60.207 22.0213C59.7163 22.0074 59.2701 21.8148 58.9318 21.5087Z" fill="#705A4F"/>
<path d="M68.7208 27.6727C68.5478 27.6727 68.3728 27.6582 68.1998 27.6273C67.4197 27.49 66.7402 27.0551 66.285 26.4036C64.0357 23.1945 60.3249 23.0156 60.1683 23.0098C59.4714 22.9905 58.7919 22.7179 58.267 22.2424H58.2661C57.6262 21.6614 57.2695 20.836 57.2888 19.9757C57.3246 18.3479 58.7687 17.0537 60.3008 17.074C60.5801 17.0798 67.1307 17.2673 71.1479 22.9953C71.6041 23.6439 71.7791 24.4327 71.6428 25.2137C71.5056 25.9947 71.0725 26.6761 70.423 27.1314C69.9165 27.4871 69.3259 27.6727 68.7208 27.6727ZM59.5961 20.7751C59.7711 20.9336 59.9972 21.0254 60.2331 21.0312C60.7377 21.0505 65.1473 21.3309 67.9079 25.2688C68.0596 25.4872 68.2858 25.6322 68.5439 25.6777C68.8039 25.726 69.0678 25.6641 69.2862 25.5114C69.5028 25.3596 69.6468 25.1325 69.6922 24.8715C69.7386 24.6115 69.6796 24.3486 69.5279 24.1321C66.081 19.2188 60.5018 19.0574 60.266 19.0536C59.6483 19.0449 59.281 19.4789 59.2684 20.0202C59.2617 20.3053 59.3815 20.5808 59.5961 20.7751Z" fill="black"/>
<path d="M32.9022 57.2993C40.0775 57.2993 45.8943 51.4826 45.8943 44.3072C45.8943 37.1319 40.0775 31.3152 32.9022 31.3152C25.7269 31.3152 19.9102 37.1319 19.9102 44.3072C19.9102 51.4826 25.7269 57.2993 32.9022 57.2993Z" fill="#FAFCFB"/>
<path d="M32.9037 58.2886C25.1951 58.2886 18.9229 52.0164 18.9229 44.3078C18.9229 36.5992 25.1951 30.3269 32.9037 30.3269C40.6123 30.3269 46.8846 36.5992 46.8846 44.3078C46.8846 52.0164 40.6123 58.2886 32.9037 58.2886ZM32.9037 32.3065C26.2864 32.3065 20.9024 37.6904 20.9024 44.3078C20.9024 50.9251 26.2864 56.309 32.9037 56.309C39.521 56.309 44.905 50.9251 44.905 44.3078C44.905 37.6904 39.521 32.3065 32.9037 32.3065Z" fill="black"/>
<path d="M32.9041 49.2561C35.6373 49.2561 37.853 47.0404 37.853 44.3071C37.853 41.5739 35.6373 39.3582 32.9041 39.3582C30.1708 39.3582 27.9551 41.5739 27.9551 44.3071C27.9551 47.0404 30.1708 49.2561 32.9041 49.2561Z" fill="#705A4F"/>
<path d="M32.9036 50.2464C29.6288 50.2464 26.9648 47.5825 26.9648 44.3077C26.9648 41.0328 29.6288 38.3689 32.9036 38.3689C36.1785 38.3689 38.8424 41.0328 38.8424 44.3077C38.8424 47.5825 36.1785 50.2464 32.9036 50.2464ZM32.9036 40.3485C30.7201 40.3485 28.9444 42.1241 28.9444 44.3077C28.9444 46.4912 30.7201 48.2669 32.9036 48.2669C35.0872 48.2669 36.8628 46.4912 36.8628 44.3077C36.8628 42.1241 35.0872 40.3485 32.9036 40.3485Z" fill="black"/>
<path d="M62.5965 57.2993C69.7719 57.2993 75.5886 51.4826 75.5886 44.3072C75.5886 37.1319 69.7719 31.3152 62.5965 31.3152C55.4212 31.3152 49.6045 37.1319 49.6045 44.3072C49.6045 51.4826 55.4212 57.2993 62.5965 57.2993Z" fill="#FAFCFB"/>
<path d="M62.5971 58.2886C54.8885 58.2886 48.6162 52.0164 48.6162 44.3078C48.6162 36.5992 54.8885 30.3269 62.5971 30.3269C70.3057 30.3269 76.5779 36.5992 76.5779 44.3078C76.5779 52.0164 70.3057 58.2886 62.5971 58.2886ZM62.5971 32.3065C55.9798 32.3065 50.5958 37.6904 50.5958 44.3078C50.5958 50.9251 55.9798 56.309 62.5971 56.309C69.2144 56.309 74.5984 50.9251 74.5984 44.3078C74.5984 37.6904 69.2144 32.3065 62.5971 32.3065Z" fill="black"/>
<path d="M62.5964 49.2561C65.3297 49.2561 67.5454 47.0404 67.5454 44.3071C67.5454 41.5739 65.3297 39.3582 62.5964 39.3582C59.8632 39.3582 57.6475 41.5739 57.6475 44.3071C57.6475 47.0404 59.8632 49.2561 62.5964 49.2561Z" fill="#705A4F"/>
<path d="M62.597 50.2464C59.3221 50.2464 56.6582 47.5825 56.6582 44.3077C56.6582 41.0328 59.3221 38.3689 62.597 38.3689C65.8718 38.3689 68.5358 41.0328 68.5358 44.3077C68.5358 47.5825 65.8718 50.2464 62.597 50.2464ZM62.597 40.3485C60.4134 40.3485 58.6378 42.1241 58.6378 44.3077C58.6378 46.4912 60.4134 48.2669 62.597 48.2669C64.7805 48.2669 66.5562 46.4912 66.5562 44.3077C66.5562 42.1241 64.7805 40.3485 62.597 40.3485Z" fill="black"/>
</svg>
