<svg width="64" height="65" viewBox="0 0 64 65" fill="none" xmlns="http://www.w3.org/2000/svg">
<path d="M2.1 57.9002H59.8C60.9 57.9002 61.9 57.0002 61.9 55.8002V13.9002C61.9 12.8002 61 11.8002 59.8 11.8002H31C30.2 11.8002 29.5 11.4002 29.2 10.7002L27.5 7.3002C27.1 6.6002 26.4 6.2002 25.7 6.2002H2.1C0.9 6.2002 0 7.1002 0 8.3002V55.8002C0 56.9002 0.9 57.9002 2.1 57.9002Z" fill="#CC0000"/>
<path d="M3 58.7996H59.7C60.8 58.7996 61.8 57.8996 61.8 56.6996V14.7996C61.8 13.6996 60.9 12.6996 59.7 12.6996H31C30.2 12.6996 29.5 12.2996 29.2 11.5996L27.5 8.19961C27.1 7.49961 26.4 7.09961 25.7 7.09961H2.1C0.9 7.09961 0 8.09961 0 9.19961V55.7996C0 57.3996 1.3 58.7996 3 58.7996Z" fill="#CC0000"/>
<path d="M60.2001 15.2002H1.6001V36.3002H60.2001V15.2002Z" fill="#F3F3F3"/>
<path d="M2.4001 15.2002H1.6001V36.3002H2.4001V15.2002Z" fill="#E2E2E2"/>
<path d="M60.2001 15.2002H1.6001V16.1002H60.2001V15.2002Z" fill="#E2E2E2"/>
<path d="M64 19.0996V54.8996C64 56.5996 62.7 57.8996 61 57.8996H3C1.3 57.8996 0 56.5996 0 54.8996V23.8996C0 22.1996 1.3 20.8996 3 20.8996H32.2C33 20.8996 33.8 20.5996 34.3 19.9996L37.3 16.9996C37.9 16.3996 38.6 16.0996 39.4 16.0996H61C62.7 16.0996 64 17.4996 64 19.0996Z" fill="#F69F99"/>
<path d="M64 20V55.8C64 57.5 62.7 58.8 61 58.8H3C1.3 58.8 0 57.5 0 55.8V24.8C0 23.1 1.3 21.8 3 21.8H32.2C33 21.8 33.8 21.5 34.3 20.9L37.3 17.9C37.9 17.3 38.6 17 39.4 17H61C62.7 17 64 18.4 64 20Z" fill="#CC0000"/>
</svg>
