<svg width="40" height="40" viewBox="0 0 40 40" fill="none" xmlns="http://www.w3.org/2000/svg">
<rect width="40" height="40" rx="5" fill="#DE0000" fill-opacity="0.1"/>
<path d="M16.8482 20.314V24.059" stroke="#DE0000" stroke-width="1.5" stroke-linecap="round" stroke-linejoin="round"/>
<path d="M18.7591 22.1868H14.938" stroke="#DE0000" stroke-width="1.5" stroke-linecap="round" stroke-linejoin="round"/>
<path d="M23.3661 20.428H23.259" stroke="#DE0000" stroke-width="1.5" stroke-linecap="round" stroke-linejoin="round"/>
<path d="M25.1795 24.0027H25.0725" stroke="#DE0000" stroke-width="1.5" stroke-linecap="round" stroke-linejoin="round"/>
<path d="M16.0723 10C16.0723 10.7405 16.6847 11.3408 17.4403 11.3408H18.4968C19.6624 11.3449 20.6065 12.2703 20.6118 13.4127V14.0877" stroke="#DE0000" stroke-width="1.5" stroke-linecap="round" stroke-linejoin="round"/>
<path fill-rule="evenodd" clip-rule="evenodd" d="M24.4283 29.9628C21.4231 30.0136 18.473 30.0116 15.5727 29.9628C12.3535 29.9628 10 27.6665 10 24.5114V19.8619C10 16.7068 12.3535 14.4105 15.5727 14.4105C18.4889 14.3607 21.4411 14.3617 24.4283 14.4105C27.6476 14.4105 30 16.7078 30 19.8619V24.5114C30 27.6665 27.6476 29.9628 24.4283 29.9628Z" stroke="#DE0000" stroke-width="1.5" stroke-linecap="round" stroke-linejoin="round"/>
</svg>
