<svg width="24" height="24" viewBox="0 0 24 24" fill="none" xmlns="http://www.w3.org/2000/svg">
<path opacity="0.8" d="M3.09277 9.40445H20.9167" stroke="black" stroke-width="1.5" stroke-linecap="round" stroke-linejoin="round"/>
<path opacity="0.8" fill-rule="evenodd" clip-rule="evenodd" d="M6.80811 13.3105C6.80811 12.8963 7.14389 12.5605 7.55811 12.5605H7.56737C7.98158 12.5605 8.31737 12.8963 8.31737 13.3105C8.31737 13.7248 7.98158 14.0605 7.56737 14.0605H7.55811C7.14389 14.0605 6.80811 13.7248 6.80811 13.3105ZM12.0048 12.5605C11.5906 12.5605 11.2548 12.8963 11.2548 13.3105C11.2548 13.7248 11.5906 14.0605 12.0048 14.0605H12.0141C12.4283 14.0605 12.7641 13.7248 12.7641 13.3105C12.7641 12.8963 12.4283 12.5605 12.0141 12.5605H12.0048ZM16.4423 12.5605C16.0281 12.5605 15.6923 12.8963 15.6923 13.3105C15.6923 13.7248 16.0281 14.0605 16.4423 14.0605H16.4516C16.8658 14.0605 17.2016 13.7248 17.2016 13.3105C17.2016 12.8963 16.8658 12.5605 16.4516 12.5605H16.4423ZM16.4423 16.447C16.0281 16.447 15.6923 16.7828 15.6923 17.197C15.6923 17.6112 16.0281 17.947 16.4423 17.947H16.4516C16.8658 17.947 17.2016 17.6112 17.2016 17.197C17.2016 16.7828 16.8658 16.447 16.4516 16.447H16.4423ZM11.2548 17.197C11.2548 16.7828 11.5906 16.447 12.0048 16.447H12.0141C12.4283 16.447 12.7641 16.7828 12.7641 17.197C12.7641 17.6112 12.4283 17.947 12.0141 17.947H12.0048C11.5906 17.947 11.2548 17.6112 11.2548 17.197ZM7.55811 16.447C7.14389 16.447 6.80811 16.7828 6.80811 17.197C6.80811 17.6112 7.14389 17.947 7.55811 17.947H7.56737C7.98158 17.947 8.31737 17.6112 8.31737 17.197C8.31737 16.7828 7.98158 16.447 7.56737 16.447H7.55811Z" fill="black"/>
<path d="M16.0438 2V5.29078" stroke="black" stroke-width="1.5" stroke-linecap="round" stroke-linejoin="round"/>
<path d="M7.96564 2V5.29078" stroke="black" stroke-width="1.5" stroke-linecap="round" stroke-linejoin="round"/>
<path fill-rule="evenodd" clip-rule="evenodd" d="M16.2383 3.58008H7.77096C4.83427 3.58008 3 5.21601 3 8.2231V17.2727C3 20.3271 4.83427 22.0009 7.77096 22.0009H16.229C19.175 22.0009 21 20.3555 21 17.3484V8.2231C21.0092 5.21601 19.1842 3.58008 16.2383 3.58008Z" stroke="black" stroke-width="1.5" stroke-linecap="round" stroke-linejoin="round"/>
</svg>
