<svg width="35" height="35" viewBox="0 0 35 35" fill="none" xmlns="http://www.w3.org/2000/svg">
<path d="M0 0H30C32.7614 0 35 2.23858 35 5V30C35 32.7614 32.7614 35 30 35H0V0Z" fill="#CC0000" fill-opacity="0.05"/>
<path d="M0.5 0.5H30C32.4853 0.5 34.5 2.51472 34.5 5V30C34.5 32.4853 32.4853 34.5 30 34.5H0.5V0.5Z" stroke="#CC0000" stroke-opacity="0.05"/>
<path opacity="0.4" d="M24.3248 15.4678C24.3248 15.4678 23.7818 22.2028 23.4668 25.0398C23.3168 26.3948 22.4798 27.1888 21.1088 27.2138C18.4998 27.2608 15.8878 27.2638 13.2798 27.2088C11.9608 27.1818 11.1378 26.3778 10.9908 25.0468C10.6738 22.1848 10.1338 15.4678 10.1338 15.4678" stroke="#CC0000" stroke-width="1.5" stroke-linecap="round" stroke-linejoin="round"/>
<path d="M25.708 12.2393H8.75" stroke="#CC0000" stroke-width="1.5" stroke-linecap="round" stroke-linejoin="round"/>
<path d="M22.4406 12.2395C21.6556 12.2395 20.9796 11.6845 20.8256 10.9155L20.5826 9.69949C20.4326 9.13849 19.9246 8.75049 19.3456 8.75049H15.1126C14.5336 8.75049 14.0256 9.13849 13.8756 9.69949L13.6326 10.9155C13.4786 11.6845 12.8026 12.2395 12.0176 12.2395" stroke="#CC0000" stroke-width="1.5" stroke-linecap="round" stroke-linejoin="round"/>
</svg>
