<svg width="24" height="24" viewBox="0 0 24 24" fill="none" xmlns="http://www.w3.org/2000/svg">
<path d="M20.5125 5.73753L16.0125 1.23753C15.979 1.2015 15.9384 1.17288 15.8932 1.1535C15.8479 1.13413 15.7992 1.12443 15.75 1.12503H4.8225C4.43921 1.127 4.07217 1.28013 3.80114 1.55117C3.53011 1.8222 3.37697 2.18923 3.375 2.57253V9.75003C3.375 9.84948 3.41451 9.94487 3.48484 10.0152C3.55516 10.0855 3.65054 10.125 3.75 10.125C3.84946 10.125 3.94484 10.0855 4.01517 10.0152C4.08549 9.94487 4.125 9.84948 4.125 9.75003V2.57253C4.125 2.38754 4.19849 2.21013 4.32929 2.07932C4.4601 1.94851 4.63751 1.87503 4.8225 1.87503H15.375V6.00003C15.375 6.09948 15.4145 6.19487 15.4848 6.26519C15.5552 6.33552 15.6505 6.37503 15.75 6.37503H19.875V21.4275C19.875 21.6125 19.8015 21.7899 19.6707 21.9207C19.5399 22.0515 19.3625 22.125 19.1775 22.125H4.8225C4.63751 22.125 4.4601 22.0515 4.32929 21.9207C4.19849 21.7899 4.125 21.6125 4.125 21.4275V19.5C4.125 19.4006 4.08549 19.3052 4.01517 19.2349C3.94484 19.1645 3.84946 19.125 3.75 19.125C3.65054 19.125 3.55516 19.1645 3.48484 19.2349C3.41451 19.3052 3.375 19.4006 3.375 19.5V21.4275C3.37697 21.8108 3.53011 22.1779 3.80114 22.4489C4.07217 22.7199 4.43921 22.8731 4.8225 22.875H19.1775C19.5608 22.8731 19.9278 22.7199 20.1989 22.4489C20.4699 22.1779 20.623 21.8108 20.625 21.4275V6.00003C20.6256 5.95084 20.6159 5.90208 20.5965 5.85687C20.5772 5.81166 20.5485 5.77101 20.5125 5.73753ZM16.125 2.40753L19.3425 5.62503H16.125V2.40753Z" fill="black" fill-opacity="0.7"/>
<path d="M17.625 17.16V12.09C17.626 11.9302 17.5953 11.7717 17.5346 11.6239C17.4739 11.476 17.3844 11.3417 17.2714 11.2287C17.1584 11.1156 17.024 11.0262 16.8762 10.9655C16.7283 10.9048 16.5699 10.874 16.41 10.875H3.09002C2.93019 10.874 2.77175 10.9048 2.62389 10.9655C2.47603 11.0262 2.34169 11.1156 2.22867 11.2287C2.11565 11.3417 2.02619 11.476 1.96548 11.6239C1.90477 11.7717 1.87403 11.9302 1.87502 12.09V17.16C1.87403 17.3199 1.90477 17.4783 1.96548 17.6262C2.02619 17.774 2.11565 17.9084 2.22867 18.0214C2.34169 18.1344 2.47603 18.2239 2.62389 18.2846C2.77175 18.3453 2.93019 18.376 3.09002 18.375H16.41C16.5699 18.376 16.7283 18.3453 16.8762 18.2846C17.024 18.2239 17.1584 18.1344 17.2714 18.0214C17.3844 17.9084 17.4739 17.774 17.5346 17.6262C17.5953 17.4783 17.626 17.3199 17.625 17.16ZM5.25002 15.6075C5.37201 15.7348 5.5188 15.8358 5.68134 15.9042C5.84388 15.9725 6.0187 16.0069 6.19502 16.005C6.38571 16.0052 6.57447 15.967 6.75002 15.8925C6.93838 15.7977 7.11051 15.6737 7.26002 15.525L7.68752 15.96C7.50286 16.1774 7.27293 16.3517 7.01383 16.4709C6.75473 16.5901 6.47272 16.6512 6.18752 16.65C5.91176 16.6631 5.63625 16.6193 5.37818 16.5212C5.1201 16.4231 4.885 16.273 4.68752 16.08C4.31091 15.6923 4.10024 15.1731 4.10024 14.6325C4.10024 14.092 4.31091 13.5728 4.68752 13.185C4.88555 12.9919 5.12039 12.8406 5.37808 12.7401C5.63577 12.6396 5.91105 12.592 6.18752 12.6C6.47163 12.5965 6.75308 12.655 7.01218 12.7716C7.27128 12.8882 7.50177 13.06 7.68752 13.275L7.26752 13.7325C7.11839 13.5748 6.94011 13.4474 6.74252 13.3575C6.55726 13.2811 6.35779 13.2453 6.15752 13.2525C5.81858 13.2655 5.49596 13.4014 5.25002 13.635C5.1168 13.7592 5.01172 13.9105 4.94186 14.0786C4.872 14.2468 4.83898 14.428 4.84502 14.61C4.84049 14.7952 4.87411 14.9793 4.94379 15.1509C5.01346 15.3225 5.1177 15.4779 5.25002 15.6075ZM10.8225 16.3575C10.5328 16.5787 10.1741 16.6903 9.81002 16.6725C9.20741 16.6757 8.62595 16.4506 8.18252 16.0425L8.59502 15.54C8.9273 15.8581 9.36528 16.0424 9.82502 16.0575C10.005 16.0674 10.1835 16.0202 10.335 15.9225C10.3947 15.8821 10.4433 15.8271 10.476 15.7629C10.5088 15.6986 10.5248 15.6271 10.5225 15.555C10.5252 15.4858 10.51 15.417 10.4785 15.3553C10.447 15.2936 10.4002 15.241 10.3425 15.2025C10.1555 15.0909 9.9496 15.0147 9.73502 14.9775C9.51413 14.9245 9.29631 14.8594 9.08252 14.7825C8.93776 14.7316 8.80318 14.6554 8.68502 14.5575C8.5667 14.4618 8.47346 14.3387 8.41335 14.1989C8.35324 14.0591 8.32807 13.9067 8.34002 13.755C8.33045 13.5929 8.36185 13.431 8.43132 13.2842C8.50079 13.1374 8.60609 13.0104 8.73752 12.915C9.02144 12.7128 9.36418 12.61 9.71252 12.6225C9.9674 12.6213 10.2208 12.6618 10.4625 12.7425C10.6954 12.8188 10.9117 12.9384 11.1 13.095L10.7475 13.59C10.6099 13.4724 10.4488 13.3855 10.275 13.335C10.0873 13.2676 9.88952 13.2321 9.69002 13.23C9.52461 13.2269 9.36141 13.2684 9.21752 13.35C9.1588 13.3874 9.11114 13.4398 9.07948 13.5017C9.04783 13.5637 9.03334 13.6331 9.03752 13.7025C9.0337 13.774 9.04823 13.8454 9.07974 13.9097C9.11124 13.974 9.15867 14.0292 9.21752 14.07C9.4662 14.1962 9.73125 14.2871 10.005 14.34C10.3346 14.4034 10.6452 14.542 10.9125 14.745C11.0142 14.841 11.0942 14.9575 11.1472 15.0868C11.2003 15.2162 11.2251 15.3553 11.22 15.495C11.2218 15.6568 11.1861 15.8167 11.1159 15.9625C11.0456 16.1082 10.9427 16.2357 10.815 16.335L10.8225 16.3575ZM13.8225 16.6275H13.0725L11.505 12.72H12.255L13.4625 15.6375L14.6625 12.72H15.4125L13.8225 16.6275Z" fill="black" fill-opacity="0.7"/>
</svg>
