<svg width="24" height="24" viewBox="0 0 24 24" fill="none" xmlns="http://www.w3.org/2000/svg">
<path d="M13.9461 10.0463H10.0536C9.59233 10.0463 9.13858 9.92625 8.74108 9.69375C8.64358 9.6375 8.56108 9.57 8.49358 9.495C7.41358 8.2575 8.64733 6.43125 8.69983 6.3525C9.01483 5.8875 9.42733 5.52375 9.91858 5.28C10.1998 5.1375 10.5111 5.05875 10.8373 5.04375C10.8973 5.04 10.9573 5.0475 11.0173 5.0625C11.7373 5.2575 12.4386 5.26125 13.1061 5.08125C13.1773 5.0625 13.2523 5.055 13.3273 5.0625C13.6386 5.09625 13.9348 5.19 14.2048 5.34C14.6436 5.58375 15.0111 5.92125 15.3036 6.34875C15.3561 6.42375 16.5898 8.25 15.5098 9.4875C15.4423 9.5625 15.3598 9.63 15.2623 9.68625C14.8611 9.9225 14.4073 10.0463 13.9461 10.0463ZM10.8448 5.77125C10.6273 5.7825 10.4248 5.83875 10.2411 5.92875C9.86233 6.11625 9.54733 6.3975 9.29983 6.76125C9.28858 6.77625 8.33233 8.20125 9.04108 9.015C9.04858 9.0225 9.06733 9.04125 9.10483 9.06375C9.39358 9.22875 9.71983 9.31875 10.0536 9.31875H13.9498C14.2836 9.31875 14.6098 9.2325 14.8986 9.06375C14.9361 9.04125 14.9548 9.0225 14.9623 9.015C15.6711 8.20125 14.7148 6.77625 14.7036 6.76125C14.4786 6.4275 14.1898 6.165 13.8523 5.9775C13.6761 5.88 13.4811 5.81625 13.2711 5.79C12.4911 6 11.6736 5.9925 10.8448 5.77125ZM13.2973 5.78625C13.2973 5.78625 13.2936 5.78625 13.2973 5.78625V5.78625ZM11.9998 4.85625C10.6611 4.85625 9.57358 3.76875 9.57358 2.43C9.57358 1.0875 10.6611 0 11.9998 0C13.3386 0 14.4298 1.0875 14.4298 2.43C14.4298 3.76875 13.3386 4.85625 11.9998 4.85625ZM11.9998 0.7275C11.0623 0.7275 10.2973 1.4925 10.2973 2.43C10.2973 3.3675 11.0586 4.1325 11.9998 4.1325C12.9373 4.1325 13.7023 3.37125 13.7023 2.43C13.7023 1.48875 12.9373 0.7275 11.9998 0.7275ZM19.2636 24H16.6873C16.3611 24 16.0423 23.9137 15.7573 23.7525C15.6786 23.7075 15.6148 23.655 15.5623 23.595C14.7861 22.7062 15.6523 21.42 15.6898 21.3675C15.9111 21.0413 16.1961 20.79 16.5411 20.6175C16.7436 20.5163 16.9648 20.46 17.1973 20.4487C17.2498 20.445 17.3023 20.4525 17.3548 20.4675C17.8161 20.5913 18.2473 20.595 18.6711 20.4788C18.7348 20.4638 18.7986 20.4562 18.8586 20.4637C19.0836 20.49 19.2973 20.5537 19.4886 20.6625C19.7961 20.8312 20.0548 21.0712 20.2573 21.3675C20.2948 21.42 21.1611 22.7062 20.3848 23.595C20.3323 23.655 20.2648 23.7075 20.1898 23.7525C19.9123 23.9137 19.5898 24 19.2636 24ZM17.2011 21.1763C17.0811 21.1838 16.9686 21.2175 16.8673 21.2663C16.6348 21.3825 16.4436 21.5513 16.2936 21.7762C16.2861 21.7875 15.7123 22.6575 16.1136 23.115C16.2973 23.22 16.4923 23.2725 16.6911 23.2725H19.2673C19.4661 23.2725 19.6611 23.22 19.8336 23.1225C20.2461 22.6575 19.6723 21.7875 19.6648 21.7762C19.5261 21.57 19.3498 21.4125 19.1436 21.2962C19.0461 21.2437 18.9411 21.2062 18.8286 21.1912C18.2998 21.3225 17.7561 21.3188 17.2011 21.1763ZM17.9773 20.3175C17.0736 20.3175 16.3386 19.5825 16.3386 18.6788C16.3386 17.775 17.0736 17.04 17.9773 17.04C18.8811 17.04 19.6161 17.775 19.6161 18.6788C19.6161 19.5788 18.8811 20.3175 17.9773 20.3175ZM17.9773 17.7638C17.4748 17.7638 17.0661 18.1725 17.0661 18.675C17.0661 19.1775 17.4748 19.5863 17.9773 19.5863C18.4798 19.5863 18.8886 19.1775 18.8886 18.675C18.8886 18.1725 18.4798 17.7638 17.9773 17.7638ZM7.31233 24H4.73608C4.40983 24 4.09108 23.9137 3.80608 23.7525C3.72733 23.7075 3.66358 23.655 3.61108 23.595C2.83483 22.7062 3.70108 21.42 3.73858 21.3675C3.95983 21.0413 4.24483 20.79 4.58983 20.6175C4.79233 20.5163 5.01358 20.46 5.24608 20.4487C5.29858 20.445 5.35108 20.4525 5.40358 20.4675C5.86483 20.5913 6.29608 20.595 6.71983 20.4788C6.78358 20.4638 6.84733 20.4562 6.90733 20.4637C7.13233 20.49 7.34608 20.5537 7.53733 20.6625C7.84483 20.8312 8.10358 21.0712 8.30608 21.3675C8.34358 21.42 9.20983 22.7062 8.43358 23.595C8.38108 23.655 8.31733 23.7075 8.23858 23.7525C7.95733 23.9137 7.63858 24 7.31233 24ZM5.24608 21.1763C5.12608 21.1838 5.01358 21.2175 4.91233 21.2663C4.67983 21.3825 4.48858 21.5513 4.33858 21.7762C4.33108 21.7875 3.75733 22.6575 4.15858 23.115C4.34233 23.22 4.53733 23.2725 4.73608 23.2725H7.31233C7.51108 23.2725 7.70608 23.22 7.87858 23.1225C8.28733 22.6575 7.71733 21.7875 7.70983 21.7762C7.57108 21.57 7.39483 21.4125 7.18858 21.2962C7.09108 21.2437 6.98608 21.2062 6.87358 21.1912C6.34858 21.3225 5.80108 21.3188 5.24608 21.1763ZM6.02233 20.3175C5.11858 20.3175 4.38358 19.5825 4.38358 18.6788C4.38358 17.775 5.11858 17.04 6.02233 17.04C6.92608 17.04 7.66108 17.775 7.66108 18.6788C7.66483 19.5788 6.92608 20.3175 6.02233 20.3175ZM6.02233 17.7638C5.51983 17.7638 5.11108 18.1725 5.11108 18.675C5.11108 19.1775 5.51983 19.5863 6.02233 19.5863C6.52483 19.5863 6.93358 19.1775 6.93358 18.675C6.93733 18.1725 6.52483 17.7638 6.02233 17.7638ZM15.4536 18.1425C15.3598 18.1425 15.2661 18.1087 15.1948 18.0375L11.7411 14.5837C11.6736 14.5162 11.6361 14.4225 11.6361 14.325V10.8637C11.6361 10.6613 11.7973 10.5 11.9998 10.5C12.2023 10.5 12.3636 10.6613 12.3636 10.8637V14.175L15.7123 17.5238C15.8548 17.6663 15.8548 17.895 15.7123 18.0375C15.6411 18.1087 15.5473 18.1425 15.4536 18.1425Z" fill="black"/>
<path d="M8.54629 18.1425C8.45254 18.1425 8.35879 18.1088 8.28754 18.0375C8.14504 17.895 8.14504 17.6663 8.28754 17.5238L11.7413 14.07C11.8838 13.9275 12.1125 13.9275 12.255 14.07C12.3975 14.2125 12.3975 14.4413 12.255 14.5838L8.80129 18.0375C8.73004 18.1088 8.64004 18.1425 8.54629 18.1425Z" fill="black"/>
</svg>
