<svg width="36" height="36" viewBox="0 0 36 36" fill="none" xmlns="http://www.w3.org/2000/svg">
<path d="M26.0005 8.5C22.4095 8.5 19.7305 6.852 18.0115 3.595C16.3855 6.814 13.9935 8.5 11.0005 8.5C10.4485 8.5 10.0005 8.052 10.0005 7.5C10.0005 6.948 10.4485 6.5 11.0005 6.5C13.7295 6.5 15.7655 4.543 17.0515 0.684C17.1885 0.275 17.5695 0 18.0005 0C18.4315 0 18.8125 0.275 18.9495 0.684C20.2715 4.651 22.5125 6.5 26.0005 6.5C26.5535 6.5 27.0005 6.948 27.0005 7.5C27.0005 8.052 26.5535 8.5 26.0005 8.5Z" fill="#292F33"/>
<path d="M14.7115 9.15402C18.0755 12.52 15.2095 15.108 11.8435 18.473C8.4785 21.838 5.8895 24.705 2.5245 21.341C-0.8415 17.975 -0.8415 12.519 2.5245 9.15402C5.8905 5.78802 11.3455 5.78802 14.7115 9.15402Z" fill="#FFAC33"/>
<path d="M15.5426 10.472C17.1266 12.057 15.7906 15.958 12.5596 19.189C9.32857 22.42 5.42757 23.757 3.84257 22.171C2.25857 20.587 3.59457 16.685 6.82457 13.454C10.0566 10.224 13.9586 8.88802 15.5426 10.472Z" fill="#BE1931"/>
<path d="M21.2895 9.15402C17.9265 12.52 20.7915 15.108 24.1575 18.473C27.5225 21.838 30.1115 24.705 33.4765 21.341C36.8415 17.975 36.8415 12.519 33.4765 9.15402C30.1115 5.78802 24.6565 5.78802 21.2895 9.15402Z" fill="#FFAC33"/>
<path d="M20.4594 10.472C18.8744 12.057 20.2104 15.958 23.4414 19.189C26.6714 22.42 30.5744 23.757 32.1584 22.171C33.7424 20.587 32.4064 16.685 29.1754 13.454C25.9454 10.224 22.0424 8.88802 20.4594 10.472Z" fill="#BE1931"/>
<path d="M22.4106 17.721C22.6096 17.561 22.8696 17.477 23.1446 17.506C24.0116 17.6 24.7426 17.902 25.2536 18.379C25.7946 18.884 26.0606 19.562 25.9876 20.241C25.8586 21.432 24.6636 22.526 22.6246 22.306C21.8316 22.221 21.4786 22.476 21.4666 22.597C21.4526 22.718 21.7436 23.043 22.5366 23.129C23.4036 23.223 24.1346 23.525 24.6456 24.002C25.1866 24.507 25.4546 25.185 25.3796 25.864C25.2506 27.056 24.0556 28.149 22.0186 27.93C21.4406 27.868 21.1356 27.987 21.0066 28.064C20.9036 28.127 20.8626 28.188 20.8586 28.222C20.8466 28.342 21.1336 28.667 21.9286 28.753C22.4776 28.813 22.8756 29.306 22.8156 29.855C22.7566 30.404 22.2646 30.801 21.7136 30.742C19.6766 30.523 18.7406 29.2 18.8696 28.007C18.9986 26.815 20.1936 25.722 22.2326 25.942C22.8106 26.005 23.1136 25.885 23.2426 25.808C23.3466 25.746 23.3876 25.685 23.3906 25.651C23.4046 25.53 23.1156 25.205 22.3206 25.119C20.2836 24.899 19.3476 23.577 19.4766 22.384C19.6056 21.192 20.8006 20.098 22.8376 20.32C23.4156 20.382 23.7206 20.262 23.8496 20.185C23.9526 20.123 23.9936 20.062 23.9976 20.028C24.0096 19.907 23.7206 19.582 22.9276 19.496C22.3786 19.437 21.9806 18.943 22.0406 18.394C22.0726 18.118 22.2116 17.882 22.4106 17.721Z" fill="#AA8DD8"/>
<path d="M15.2664 35.328C13.2934 35.885 11.9324 35.006 11.6084 33.851C11.2844 32.697 11.9864 31.236 13.9584 30.681C14.7284 30.465 14.9594 30.097 14.9284 29.98C14.8944 29.861 14.5034 29.668 13.7354 29.884C11.7634 30.44 10.4024 29.56 10.0784 28.405C9.75242 27.25 10.4564 25.791 12.4294 25.236C13.1984 25.019 13.4304 24.65 13.3964 24.533C13.3634 24.417 12.9734 24.222 12.2044 24.438C11.6744 24.587 11.1204 24.279 10.9714 23.748C10.8234 23.215 11.1324 22.664 11.6644 22.514C13.6354 21.959 14.9974 22.836 15.3234 23.993C15.6474 25.147 14.9444 26.606 12.9714 27.163C12.2014 27.379 11.9704 27.747 12.0044 27.864C12.0364 27.981 12.4264 28.176 13.1944 27.96C15.1684 27.404 16.5284 28.282 16.8534 29.439C17.1784 30.592 16.4754 32.051 14.5014 32.608C13.7334 32.823 13.5024 33.194 13.5344 33.309C13.5684 33.427 13.9574 33.621 14.7264 33.406C15.2584 33.255 15.8094 33.565 15.9594 34.096C16.1084 34.627 15.7984 35.18 15.2664 35.328Z" fill="#77B255"/>
<path d="M2.50049 28.5C3.32892 28.5 4.00049 27.8284 4.00049 27C4.00049 26.1716 3.32892 25.5 2.50049 25.5C1.67206 25.5 1.00049 26.1716 1.00049 27C1.00049 27.8284 1.67206 28.5 2.50049 28.5Z" fill="#5C913B"/>
<path d="M7.00049 32.5C8.10506 32.5 9.00049 31.6046 9.00049 30.5C9.00049 29.3954 8.10506 28.5 7.00049 28.5C5.89592 28.5 5.00049 29.3954 5.00049 30.5C5.00049 31.6046 5.89592 32.5 7.00049 32.5Z" fill="#9266CC"/>
<path d="M30.0005 28.5C31.1051 28.5 32.0005 27.6046 32.0005 26.5C32.0005 25.3954 31.1051 24.5 30.0005 24.5C28.8959 24.5 28.0005 25.3954 28.0005 26.5C28.0005 27.6046 28.8959 28.5 30.0005 28.5Z" fill="#9266CC"/>
<path d="M25.5005 32.5C26.3289 32.5 27.0005 31.8284 27.0005 31C27.0005 30.1716 26.3289 29.5 25.5005 29.5C24.6721 29.5 24.0005 30.1716 24.0005 31C24.0005 31.8284 24.6721 32.5 25.5005 32.5Z" fill="#5C913B"/>
<path d="M17.5005 20.5C18.3289 20.5 19.0005 19.8284 19.0005 19C19.0005 18.1716 18.3289 17.5 17.5005 17.5C16.6721 17.5 16.0005 18.1716 16.0005 19C16.0005 19.8284 16.6721 20.5 17.5005 20.5Z" fill="#5C913B"/>
<path d="M7.00049 24.5C8.10506 24.5 9.00049 23.6046 9.00049 22.5C9.00049 21.3954 8.10506 20.5 7.00049 20.5C5.89592 20.5 5.00049 21.3954 5.00049 22.5C5.00049 23.6046 5.89592 24.5 7.00049 24.5Z" fill="#FFCC4D"/>
<path d="M27.5005 17.5C28.3289 17.5 29.0005 16.8284 29.0005 16C29.0005 15.1716 28.3289 14.5 27.5005 14.5C26.6721 14.5 26.0005 15.1716 26.0005 16C26.0005 16.8284 26.6721 17.5 27.5005 17.5Z" fill="#FFCC4D"/>
<path d="M12.5005 15.5C13.3289 15.5 14.0005 14.8284 14.0005 14C14.0005 13.1716 13.3289 12.5 12.5005 12.5C11.6721 12.5 11.0005 13.1716 11.0005 14C11.0005 14.8284 11.6721 15.5 12.5005 15.5Z" fill="#FFCC4D"/>
</svg>
